<?xml version="1.0" encoding="utf-8"?>
<!-- Generator: Adobe Illustrator 14.0.0, SVG Export Plug-In . SVG Version: 6.00 Build 43363)  -->
<!DOCTYPE svg PUBLIC "-//W3C//DTD SVG 1.1//EN" "http://www.w3.org/Graphics/SVG/1.1/DTD/svg11.dtd">
<svg version="1.1" id="Layer_1" xmlns="http://www.w3.org/2000/svg" xmlns:xlink="http://www.w3.org/1999/xlink" x="0px" y="0px"
	 width="463.732px" height="307.585px" viewBox="14.097 -356.193 463.732 307.585"
	 enable-background="new 14.097 -356.193 463.732 307.585" xml:space="preserve">
<g>
	<path fill="#0C8A54" d="M85.801-139.899c-2.606-3.021-5.76-5.498-9.365-7.359c-3.668-1.895-7.799-2.854-12.276-2.854
		c-4.29,0-8.332,0.896-12.015,2.66c-3.646,1.749-6.846,4.14-9.516,7.104c-2.654,2.951-4.763,6.388-6.264,10.214
		c-1.505,3.837-2.269,7.903-2.269,12.089c0,4.006,0.717,7.977,2.129,11.801c1.414,3.834,3.449,7.288,6.047,10.268
		c2.611,2.998,5.785,5.437,9.43,7.242c3.687,1.828,7.82,2.756,12.289,2.756c4.294,0,8.337-0.896,12.017-2.661
		c3.646-1.746,6.832-4.124,9.475-7.062c2.628-2.924,4.722-6.346,6.22-10.17c1.506-3.836,2.271-7.904,2.271-12.088
		c0-3.949-0.717-7.879-2.131-11.681C90.428-133.441,88.396-136.892,85.801-139.899z M64.076-96.746c-2.729,0-5.231-0.572-7.44-1.701
		c-2.248-1.147-4.197-2.719-5.795-4.666c-1.623-1.979-2.898-4.287-3.789-6.86c-0.897-2.586-1.354-5.302-1.354-8.072
		c0-2.663,0.442-5.312,1.313-7.875c0.864-2.547,2.113-4.842,3.713-6.82c1.574-1.95,3.518-3.549,5.772-4.753
		c2.2-1.174,4.75-1.769,7.577-1.769c2.67,0,5.129,0.569,7.309,1.696c2.231,1.154,4.189,2.72,5.82,4.647
		c1.643,1.947,2.928,4.233,3.813,6.798c0.896,2.592,1.352,5.308,1.352,8.073c0,2.612-0.43,5.241-1.274,7.809
		c-0.842,2.547-2.076,4.853-3.674,6.855c-1.578,1.979-3.523,3.604-5.781,4.834C69.443-97.353,66.898-96.746,64.076-96.746z"/>
	<path fill="#0C8A54" d="M140.159-127.26c-2.004-2.277-4.402-4.109-7.138-5.445c-2.771-1.354-5.85-2.041-9.146-2.041
		c-3.688,0-7.107,0.924-10.17,2.746c-1.34,0.799-2.572,1.715-3.695,2.743v-4.737H99.492v65.385h11.352v-22.682
		c1.051,1.006,2.209,1.92,3.471,2.733c3.07,1.986,6.652,2.993,10.647,2.993c3.192,0,6.163-0.675,8.827-2.007
		c2.627-1.312,4.918-3.108,6.812-5.338c1.879-2.212,3.35-4.846,4.375-7.828c1.014-2.953,1.529-6.136,1.529-9.46
		c0-3.177-0.564-6.28-1.676-9.226C143.719-122.366,142.144-125.004,140.159-127.26z M127.667-97.062
		c-1.478,0.773-3.1,1.15-4.961,1.15c-1.256,0-2.478-0.223-3.633-0.664c-1.211-0.459-2.365-1.098-3.437-1.902
		c-1.067-0.801-2.031-1.764-2.86-2.86c-0.767-1.013-1.414-2.107-1.935-3.263v-11.809c0.231-0.975,0.687-1.893,1.381-2.801
		c0.787-1.024,1.731-1.92,2.808-2.66c1.11-0.766,2.313-1.393,3.571-1.861c1.19-0.442,2.349-0.668,3.437-0.668
		c1.807,0,3.496,0.37,5.024,1.101c1.568,0.748,2.947,1.772,4.101,3.045c1.166,1.289,2.106,2.827,2.795,4.568
		c0.686,1.733,1.029,3.579,1.029,5.488c0,1.829-0.302,3.635-0.894,5.364c-0.588,1.714-1.44,3.262-2.539,4.604
		C130.482-98.916,129.176-97.851,127.667-97.062z"/>
	<path fill="#0C8A54" d="M192.488-127.387c-2.065-2.216-4.598-4.015-7.529-5.345c-2.95-1.337-6.248-2.016-9.803-2.016
		c-3.547,0-6.854,0.662-9.824,1.965c-2.957,1.299-5.547,3.093-7.694,5.332c-2.146,2.237-3.832,4.871-5.011,7.828
		c-1.174,2.953-1.77,6.124-1.77,9.425c0,3.3,0.596,6.481,1.768,9.461c1.177,2.985,2.847,5.632,4.959,7.864
		c2.123,2.246,4.703,4.044,7.666,5.344c2.97,1.303,6.275,1.964,9.822,1.964c2.34,0,4.627-0.306,6.799-0.906
		c2.162-0.601,4.166-1.442,5.955-2.505c1.797-1.063,3.406-2.35,4.783-3.817c1.396-1.49,2.518-3.164,3.33-4.978l0.953-2.125
		l-10.316-2.852l-0.666,1.661c-0.352,0.88-0.856,1.65-1.541,2.357c-0.721,0.744-1.561,1.382-2.492,1.896
		c-0.977,0.537-2.045,0.971-3.174,1.289c-1.094,0.311-2.231,0.468-3.379,0.468c-1.615,0-3.162-0.312-4.604-0.927
		c-1.469-0.623-2.795-1.501-3.953-2.609c-1.15-1.104-2.104-2.447-2.828-4c-0.447-0.951-0.787-1.98-1.018-3.079h35.504l0.32-1.607
		c0.074-0.37,0.125-0.829,0.162-1.452c0.028-0.534,0.045-1.126,0.045-1.779c0-3.124-0.562-6.188-1.678-9.105
		C196.16-122.564,194.549-125.17,192.488-127.387z M175.156-125.233c1.68,0,3.283,0.304,4.765,0.898
		c1.487,0.601,2.812,1.438,3.934,2.485c1.125,1.056,2.076,2.364,2.828,3.893c0.438,0.893,0.776,1.842,1.01,2.838h-24.916
		c0.223-1,0.54-1.947,0.954-2.832c0.699-1.494,1.623-2.796,2.746-3.871c1.115-1.067,2.433-1.914,3.914-2.512
		C171.871-124.933,173.474-125.233,175.156-125.233z"/>
	<path fill="#0C8A54" d="M243.094-128.568c-1.185-1.936-2.781-3.467-4.752-4.552c-1.963-1.079-4.396-1.626-7.229-1.626
		c-4.172,0-8.086,1.015-11.631,3.015c-1.676,0.945-3.176,2.049-4.492,3.304v-5.565h-10.682v47.596h11.35V-114.4
		c0.435-1.346,1.064-2.598,1.879-3.729c0.879-1.223,1.918-2.285,3.084-3.16c1.185-0.888,2.457-1.601,3.783-2.115
		c1.267-0.492,2.539-0.741,3.785-0.741c2.236,0,3.766,0.729,4.812,2.288c1.188,1.771,1.791,4.824,1.791,9.074v26.387h11.352v-28.058
		c0-2.729-0.225-5.297-0.662-7.635C245.021-124.544,244.219-126.725,243.094-128.568z"/>
	<polygon fill="#0C8A54" points="296.097,-124.055 267.441,-124.055 267.441,-149.695 255.924,-149.695 255.924,-86.399 
		267.441,-86.399 267.441,-113.374 296.097,-113.374 296.097,-86.399 307.611,-86.399 307.611,-149.695 296.097,-149.695 	"/>
	<path fill="#0C8A54" d="M355.564-96.777c-0.002,0-0.004,0-0.004,0c-0.031-0.063-0.09-0.264-0.09-0.641v-17.789
		c0-6.111-1.84-10.955-5.47-14.396c-3.601-3.411-8.502-5.143-14.571-5.143c-3.211,0-6.351,0.514-9.33,1.527
		c-2.935,0.998-5.928,2.508-8.898,4.487l-1.479,0.986l4.271,8.398l1.887-1.322c4.479-3.142,8.76-4.732,12.717-4.732
		c3.146,0,5.467,0.804,7.094,2.453c1.638,1.658,2.433,3.944,2.433,6.988v0.729c-1.067-0.301-2.209-0.562-3.409-0.775
		c-2.283-0.409-4.564-0.616-6.783-0.616c-2.84,0-5.51,0.35-7.938,1.037c-2.474,0.703-4.651,1.732-6.479,3.063
		c-1.889,1.376-3.365,3.068-4.395,5.029c-1.039,1.979-1.562,4.188-1.562,6.566c0,2.121,0.438,4.155,1.31,6.053
		c0.862,1.886,2.08,3.54,3.614,4.916c1.515,1.356,3.326,2.439,5.388,3.22c2.058,0.778,4.315,1.174,6.722,1.174
		c1.639,0,3.312-0.185,4.979-0.547c1.664-0.361,3.307-0.915,4.881-1.642c1.58-0.73,3.091-1.654,4.486-2.746
		c0.195-0.153,0.389-0.312,0.578-0.471c0.5,1.979,1.699,3.061,2.709,3.639c1.471,0.84,3.012,1.266,4.584,1.266
		c0.506,0,1.057-0.031,1.643-0.096c0.555-0.062,1.146-0.155,1.755-0.277l1.608-0.319v-9.919l-1.93-0.067
		C355.691-96.751,355.593-96.777,355.564-96.777z M327.107-106.238c1.938-1.299,4.625-1.958,7.988-1.958
		c1.646,0,3.393,0.171,5.184,0.509c1.326,0.25,2.613,0.581,3.843,0.986v5.023c0,0.544-0.392,1.295-1.086,2.1
		c-1.085,1.226-2.628,2.295-4.585,3.176c-1.957,0.881-3.984,1.327-6.025,1.327c-1.307,0-2.469-0.193-3.455-0.576
		c-0.979-0.378-1.805-0.874-2.447-1.476c-0.637-0.595-1.11-1.265-1.448-2.047c-0.338-0.781-0.504-1.572-0.504-2.42
		C324.568-103.603,325.375-105.076,327.107-106.238z"/>
	<path fill="#0C8A54" d="M395.681-101.34c-0.24,0.68-0.64,1.303-1.224,1.905c-0.651,0.677-1.428,1.281-2.297,1.8
		c-0.881,0.522-1.875,0.946-2.961,1.26c-1.061,0.309-2.151,0.465-3.242,0.465c-1.694,0-3.305-0.356-4.774-1.059
		c-1.506-0.718-2.836-1.723-3.959-2.988c-1.144-1.288-2.072-2.842-2.765-4.617c-0.688-1.761-1.032-3.68-1.032-5.705
		c0-2.082,0.334-4.003,0.994-5.711c0.661-1.719,1.562-3.229,2.68-4.49c1.086-1.227,2.404-2.197,3.92-2.885
		c1.514-0.686,3.147-1.033,4.854-1.033c2.113,0,3.978,0.476,5.689,1.45c1.688,0.961,2.965,2.274,3.906,4.018l0.785,1.449
		l10.998-3.453l-1.052-2.1c-1.778-3.556-4.434-6.427-7.889-8.537c-3.451-2.105-7.58-3.175-12.275-3.175
		c-3.604,0-6.928,0.662-9.871,1.969c-2.928,1.297-5.487,3.076-7.604,5.287c-2.125,2.215-3.783,4.84-4.93,7.801
		c-1.146,2.946-1.724,6.111-1.724,9.41c0,3.299,0.595,6.481,1.769,9.461c1.176,2.984,2.844,5.631,4.959,7.864
		c2.117,2.243,4.69,4.052,7.647,5.378c2.976,1.336,6.285,2.013,9.838,2.013c2.341,0,4.615-0.306,6.763-0.908
		c2.129-0.601,4.1-1.426,5.86-2.455c1.783-1.048,3.363-2.331,4.691-3.814c1.346-1.5,2.406-3.182,3.158-4.998l0.842-2.039
		l-11.125-3.362L395.681-101.34z"/>
	<polygon fill="#0C8A54" points="438.327,-113.683 457.809,-133.91 444.169,-133.91 424.622,-114.146 424.622,-151.365 
		413.273,-151.365 413.273,-86.399 424.622,-86.399 424.622,-100.981 430.667,-106.662 444.97,-86.399 457.83,-86.399 	"/>
</g>
<g>
	<g>
		
			<radialGradient id="SVGID_1_" cx="725.3169" cy="-628.3096" r="164.5241" gradientTransform="matrix(1 0 0 -1 -477.3574 -802.7471)" gradientUnits="userSpaceOnUse">
			<stop  offset="0.0245" style="stop-color:#52D5A1"/>
			<stop  offset="0.1701" style="stop-color:#3BCB92"/>
			<stop  offset="0.3291" style="stop-color:#29C385"/>
			<stop  offset="0.4417" style="stop-color:#22C081"/>
			<stop  offset="0.449" style="stop-color:#24C182"/>
			<stop  offset="0.5627" style="stop-color:#3DCC93"/>
			<stop  offset="0.6659" style="stop-color:#4DD39D"/>
			<stop  offset="0.7485" style="stop-color:#52D5A1"/>
			<stop  offset="1" style="stop-color:#80F5C6"/>
		</radialGradient>
		<path fill="url(#SVGID_1_)" stroke="#098B55" d="M325.912-206.274c0,16.558-13.422,29.981-29.98,29.981h-99.938
			c-16.558,0-29.98-13.423-29.98-29.981v-99.937c0-16.558,13.422-29.981,29.98-29.981h99.938c16.557,0,29.98,13.424,29.98,29.981
			L325.912-206.274L325.912-206.274z"/>
		
			<linearGradient id="SVGID_2_" gradientUnits="userSpaceOnUse" x1="723.3179" y1="-603.5552" x2="723.3179" y2="-489.4521" gradientTransform="matrix(1 0 0 -1 -477.3574 -802.7471)">
			<stop  offset="0" style="stop-color:#05A562"/>
			<stop  offset="0.2227" style="stop-color:#069E5F"/>
			<stop  offset="0.5418" style="stop-color:#098B55"/>
			<stop  offset="0.546" style="stop-color:#098B55"/>
		</linearGradient>
		<path fill="url(#SVGID_2_)" d="M303.013-206.323c0,3.938-3.192,7.131-7.131,7.131h-99.841c-3.938,0-7.132-3.193-7.132-7.131
			v-99.84c0-3.938,3.194-7.131,7.132-7.131h99.841c3.938,0,7.131,3.193,7.131,7.131V-206.323L303.013-206.323z"/>
		<g>
			<g>
				<path fill="#096D42" d="M295.882-312.947c3.741,0,6.784,3.043,6.784,6.784v99.839c0,3.742-3.043,6.784-6.784,6.784h-99.84
					c-3.74,0-6.785-3.042-6.785-6.784v-99.839c0-3.74,3.044-6.784,6.785-6.784H295.882 M295.882-313.295h-99.84
					c-3.938,0-7.132,3.194-7.132,7.132v99.84c0,3.938,3.194,7.131,7.132,7.131h99.84c3.938,0,7.131-3.192,7.131-7.131v-99.84
					C303.013-310.101,299.82-313.295,295.882-313.295L295.882-313.295z"/>
			</g>
			<g opacity="0.9375">
				<path fill="none" stroke="#096D42" stroke-width="0.0625" d="M196.042-199.388c-3.757,0-6.805-3.045-6.805-6.805v-99.84
					c0-3.758,3.048-6.806,6.805-6.806h99.84c3.759,0,6.805,3.047,6.805,6.806v99.84c0,3.759-3.046,6.805-6.805,6.805H196.042
					L196.042-199.388z"/>
				<path fill="#096D42" d="M295.882-312.511c3.572,0,6.48,2.906,6.48,6.479v99.84c0,3.572-2.908,6.479-6.48,6.479h-99.84
					c-3.573,0-6.48-2.906-6.48-6.479v-99.84c0-3.572,2.908-6.479,6.48-6.479H295.882 M295.882-312.838h-99.84
					c-3.757,0-6.805,3.047-6.805,6.806v99.84c0,3.759,3.048,6.805,6.805,6.805h99.84c3.759,0,6.805-3.045,6.805-6.805v-99.84
					C302.688-309.791,299.641-312.838,295.882-312.838L295.882-312.838z"/>
			</g>
			<g opacity="0.875">
				<path fill="none" stroke="#096D42" stroke-width="0.125" d="M196.042-199.583c-3.578,0-6.48-2.901-6.48-6.479v-99.841
					c0-3.577,2.902-6.479,6.48-6.479h99.84c3.578,0,6.48,2.901,6.48,6.479v99.84c0,3.578-2.903,6.479-6.48,6.479H196.042
					L196.042-199.583z"/>
				<path fill="#096D42" d="M295.882-312.077c3.405,0,6.176,2.771,6.176,6.175v99.841c0,3.404-2.772,6.175-6.176,6.175h-99.84
					c-3.404,0-6.175-2.771-6.175-6.175v-99.841c0-3.404,2.771-6.175,6.175-6.175H295.882 M295.882-312.38h-99.84
					c-3.578,0-6.48,2.901-6.48,6.479v99.841c0,3.577,2.902,6.479,6.48,6.479h99.84c3.578,0,6.48-2.901,6.48-6.479v-99.841
					C302.362-309.48,299.46-312.38,295.882-312.38L295.882-312.38z"/>
			</g>
			<g opacity="0.8125">
				<path fill="none" stroke="#096D42" stroke-width="0.1875" d="M196.042-199.777c-3.398,0-6.152-2.754-6.152-6.153v-99.841
					c0-3.398,2.754-6.153,6.152-6.153h99.84c3.396,0,6.153,2.754,6.153,6.153v99.841c0,3.397-2.755,6.152-6.153,6.152
					L196.042-199.777L196.042-199.777z"/>
				<path fill="#096D42" d="M295.882-311.642c3.237,0,5.871,2.633,5.871,5.87v99.841c0,3.238-2.634,5.87-5.871,5.87h-99.84
					c-3.236,0-5.871-2.633-5.871-5.87v-99.841c0-3.237,2.635-5.87,5.871-5.87H295.882 M295.882-311.925h-99.84
					c-3.398,0-6.152,2.754-6.152,6.153v99.841c0,3.397,2.754,6.151,6.152,6.151h99.84c3.396,0,6.153-2.754,6.153-6.151v-99.841
					C302.036-309.169,299.279-311.925,295.882-311.925L295.882-311.925z"/>
			</g>
			<g opacity="0.75">
				<path fill="none" stroke="#096D42" stroke-width="0.25" d="M196.042-199.973c-3.217,0-5.828-2.61-5.828-5.827v-99.841
					c0-3.217,2.61-5.827,5.828-5.827h99.84c3.218,0,5.828,2.61,5.828,5.827v99.841c0,3.217-2.61,5.827-5.828,5.827H196.042
					L196.042-199.973z"/>
				<path fill="#096D42" d="M295.882-311.208c3.069,0,5.566,2.497,5.566,5.566v99.841c0,3.069-2.498,5.565-5.566,5.565h-99.84
					c-3.069,0-5.566-2.497-5.566-5.565v-99.84c0-3.07,2.499-5.566,5.566-5.566L295.882-311.208 M295.882-311.468h-99.84
					c-3.217,0-5.828,2.61-5.828,5.827v99.841c0,3.217,2.61,5.826,5.828,5.826h99.84c3.218,0,5.828-2.608,5.828-5.826v-99.84
					C301.709-308.858,299.101-311.468,295.882-311.468L295.882-311.468z"/>
			</g>
			<g opacity="0.6875">
				<path fill="none" stroke="#096D42" stroke-width="0.3125" d="M196.042-200.169c-3.037,0-5.502-2.464-5.502-5.501v-99.839
					c0-3.038,2.464-5.5,5.502-5.5h99.84c3.037,0,5.5,2.463,5.5,5.5v99.839c0,3.037-2.464,5.501-5.5,5.501H196.042L196.042-200.169z"
					/>
				<path fill="#096D42" d="M295.882-310.772c2.901,0,5.263,2.361,5.263,5.262v99.839c0,2.904-2.361,5.263-5.263,5.263h-99.84
					c-2.903,0-5.262-2.36-5.262-5.263v-99.839c0-2.901,2.36-5.262,5.262-5.262H295.882 M295.882-311.012h-99.84
					c-3.037,0-5.502,2.463-5.502,5.502v99.84c0,3.036,2.464,5.5,5.502,5.5h99.84c3.037,0,5.5-2.463,5.5-5.5v-99.842
					C301.383-308.547,298.92-311.012,295.882-311.012L295.882-311.012z"/>
			</g>
			<g opacity="0.625">
				<path fill="none" stroke="#096D42" stroke-width="0.375" d="M196.042-200.364c-2.857,0-5.175-2.317-5.175-5.176v-99.839
					c0-2.857,2.318-5.176,5.175-5.176h99.84c2.858,0,5.175,2.317,5.175,5.176v99.839c0,2.858-2.317,5.176-5.175,5.176H196.042
					L196.042-200.364z"/>
				<path fill="#096D42" d="M295.882-310.337c2.733,0,4.958,2.225,4.958,4.958v99.839c0,2.733-2.224,4.958-4.958,4.958h-99.84
					c-2.733,0-4.958-2.224-4.958-4.958v-99.839c0-2.733,2.225-4.958,4.958-4.958H295.882 M295.882-310.555h-99.84
					c-2.857,0-5.175,2.317-5.175,5.175v99.839c0,2.859,2.318,5.176,5.175,5.176h99.84c2.858,0,5.175-2.317,5.175-5.176v-99.839
					C301.057-308.238,298.74-310.555,295.882-310.555L295.882-310.555z"/>
			</g>
			<g opacity="0.5625">
				<path fill="none" stroke="#096D42" stroke-width="0.4375" d="M196.042-200.56c-2.678,0-4.849-2.172-4.849-4.848v-99.84
					c0-2.678,2.171-4.849,4.849-4.849h99.84c2.677,0,4.849,2.171,4.849,4.849v99.839c0,2.677-2.172,4.849-4.849,4.849H196.042
					L196.042-200.56z"/>
				<path fill="#096D42" d="M295.882-309.903c2.565,0,4.654,2.089,4.654,4.654v99.84c0,2.567-2.089,4.653-4.654,4.653h-99.84
					c-2.567,0-4.654-2.087-4.654-4.653v-99.84c0-2.567,2.089-4.655,4.654-4.655L295.882-309.903 M295.882-310.1h-99.84
					c-2.678,0-4.849,2.172-4.849,4.849v99.839c0,2.677,2.171,4.849,4.849,4.849h99.84c2.677,0,4.849-2.172,4.849-4.849v-99.839
					C300.732-307.926,298.559-310.1,295.882-310.1L295.882-310.1z"/>
			</g>
			<g opacity="0.5">
				<path fill="none" stroke="#096D42" stroke-width="0.5" d="M196.042-200.755c-2.498,0-4.522-2.026-4.522-4.523v-99.84
					c0-2.498,2.025-4.522,4.522-4.522h99.84c2.499,0,4.523,2.025,4.523,4.522v99.841c0,2.496-2.024,4.521-4.523,4.521
					L196.042-200.755L196.042-200.755z"/>
				<path fill="#096D42" d="M295.882-309.468c2.397,0,4.35,1.952,4.35,4.35v99.841c0,2.398-1.951,4.348-4.35,4.348h-99.84
					c-2.398,0-4.349-1.95-4.349-4.348v-99.841c0-2.397,1.951-4.35,4.349-4.35H295.882 M295.882-309.642h-99.84
					c-2.498,0-4.522,2.026-4.522,4.522v99.841c0,2.496,2.025,4.521,4.522,4.521h99.84c2.499,0,4.523-2.025,4.523-4.521v-99.841
					C300.405-307.616,298.381-309.642,295.882-309.642L295.882-309.642z"/>
			</g>
			<g opacity="0.4375">
				<path fill="none" stroke="#096D42" stroke-width="0.5625" d="M196.042-200.951c-2.317,0-4.198-1.879-4.198-4.196v-99.841
					c0-2.317,1.881-4.198,4.198-4.198h99.84c2.317,0,4.198,1.88,4.198,4.198v99.841c0,2.316-1.879,4.196-4.198,4.196H196.042
					L196.042-200.951z"/>
				<path fill="#096D42" d="M295.882-309.034c2.229,0,4.046,1.814,4.046,4.045v99.841c0,2.229-1.815,4.044-4.046,4.044h-99.84
					c-2.229,0-4.046-1.814-4.046-4.044v-99.841c0-2.23,1.816-4.045,4.046-4.045H295.882 M295.882-309.186h-99.84
					c-2.317,0-4.198,1.881-4.198,4.198v99.841c0,2.316,1.881,4.196,4.198,4.196h99.84c2.317,0,4.198-1.878,4.198-4.196v-99.841
					C300.079-307.306,298.199-309.186,295.882-309.186L295.882-309.186z"/>
			</g>
			<g opacity="0.375">
				<path fill="none" stroke="#096D42" stroke-width="0.625" d="M196.042-201.146c-2.138,0-3.873-1.734-3.873-3.871v-99.84
					c0-2.137,1.735-3.872,3.873-3.872h99.84c2.137,0,3.871,1.735,3.871,3.872v99.841c0,2.138-1.734,3.871-3.871,3.871
					L196.042-201.146L196.042-201.146z"/>
				<path fill="#096D42" d="M295.882-308.599c2.063,0,3.741,1.679,3.741,3.741v99.841c0,2.063-1.678,3.741-3.741,3.741h-99.84
					c-2.063,0-3.741-1.678-3.741-3.741v-99.841c0-2.064,1.677-3.741,3.741-3.741H295.882 M295.882-308.729h-99.84
					c-2.138,0-3.873,1.735-3.873,3.873v99.841c0,2.137,1.735,3.871,3.873,3.871h99.84c2.137,0,3.871-1.734,3.871-3.871v-99.841
					C299.752-306.994,298.018-308.729,295.882-308.729L295.882-308.729z"/>
			</g>
			<g opacity="0.3125">
				<path fill="none" stroke="#096D42" stroke-width="0.6875" d="M196.042-201.343c-1.957,0-3.545-1.587-3.545-3.545v-99.84
					c0-1.956,1.588-3.545,3.545-3.545h99.84c1.957,0,3.545,1.59,3.545,3.545v99.841c0,1.958-1.589,3.545-3.545,3.545h-99.84
					V-201.343z"/>
				<path fill="#096D42" d="M295.882-308.165c1.894,0,3.437,1.543,3.437,3.438v99.84c0,1.894-1.543,3.437-3.437,3.437h-99.84
					c-1.895,0-3.437-1.542-3.437-3.437v-99.84c0-1.895,1.541-3.436,3.437-3.436L295.882-308.165 M295.882-308.272h-99.84
					c-1.957,0-3.545,1.589-3.545,3.545v99.84c0,1.958,1.588,3.545,3.545,3.545h99.84c1.957,0,3.545-1.588,3.545-3.545v-99.84
					C299.427-306.683,297.838-308.272,295.882-308.272L295.882-308.272z"/>
			</g>
			<g opacity="0.25">
				<path fill="none" stroke="#096D42" stroke-width="0.75" d="M196.042-201.538c-1.778,0-3.22-1.442-3.22-3.22v-99.838
					c0-1.777,1.443-3.22,3.22-3.22h99.84c1.775,0,3.22,1.442,3.22,3.22v99.84c0,1.778-1.443,3.219-3.22,3.219L196.042-201.538
					L196.042-201.538z"/>
				<path fill="#096D42" d="M295.882-307.729c1.727,0,3.132,1.406,3.132,3.133v99.841c0,1.728-1.405,3.133-3.132,3.133h-99.84
					c-1.728,0-3.132-1.404-3.132-3.133v-99.841c0-1.727,1.405-3.134,3.132-3.134L295.882-307.729 M295.882-307.815h-99.84
					c-1.778,0-3.22,1.442-3.22,3.22v99.841c0,1.777,1.443,3.22,3.22,3.22h99.84c1.775,0,3.22-1.442,3.22-3.22v-99.841
					C299.101-306.373,297.659-307.815,295.882-307.815L295.882-307.815z"/>
			</g>
			<g opacity="0.1875">
				<path fill="none" stroke="#096D42" stroke-width="0.8125" d="M196.042-201.732c-1.596,0-2.893-1.296-2.893-2.893v-99.842
					c0-1.597,1.297-2.893,2.893-2.893h99.84c1.596,0,2.892,1.295,2.892,2.893v99.841c0,1.597-1.296,2.893-2.892,2.893
					L196.042-201.732L196.042-201.732z"/>
				<path fill="#096D42" d="M295.882-307.294c1.559,0,2.828,1.269,2.828,2.828v99.841c0,1.558-1.269,2.829-2.828,2.829h-99.84
					c-1.559,0-2.829-1.27-2.829-2.829v-99.841c0-1.56,1.269-2.827,2.829-2.827L295.882-307.294 M295.882-307.359h-99.84
					c-1.596,0-2.893,1.295-2.893,2.893v99.841c0,1.597,1.297,2.893,2.893,2.893h99.84c1.596,0,2.892-1.297,2.892-2.893v-99.841
					C298.775-306.062,297.479-307.359,295.882-307.359L295.882-307.359z"/>
			</g>
			<g opacity="0.125">
				<path fill="none" stroke="#096D42" stroke-width="0.875" d="M196.042-201.928c-1.418,0-2.567-1.151-2.567-2.568v-99.839
					c0-1.417,1.151-2.567,2.567-2.567h99.84c1.416,0,2.568,1.151,2.568,2.567v99.84c0,1.417-1.152,2.569-2.568,2.569h-99.84
					V-201.928z"/>
				<path fill="#096D42" d="M295.882-306.859c1.392,0,2.524,1.131,2.524,2.523v99.84c0,1.391-1.132,2.523-2.524,2.523h-99.84
					c-1.392,0-2.524-1.132-2.524-2.523v-99.84c0-1.392,1.131-2.525,2.524-2.525L295.882-306.859 M295.882-306.902h-99.84
					c-1.418,0-2.567,1.15-2.567,2.567v99.84c0,1.416,1.151,2.567,2.567,2.567h99.84c1.416,0,2.568-1.152,2.568-2.567v-99.84
					C298.449-305.752,297.298-306.902,295.882-306.902L295.882-306.902z"/>
			</g>
			<g opacity="0.0625">
				<path fill="none" stroke="#096D42" stroke-width="0.9375" d="M196.042-202.124c-1.236,0-2.242-1.005-2.242-2.242v-99.839
					c0-1.237,1.005-2.243,2.242-2.243h99.84c1.236,0,2.241,1.005,2.241,2.243v99.839c0,1.237-1.006,2.242-2.241,2.242H196.042
					L196.042-202.124z"/>
				<path fill="#096D42" d="M295.882-306.424c1.224,0,2.219,0.995,2.219,2.219v99.839c0,1.224-0.995,2.221-2.219,2.221h-99.84
					c-1.224,0-2.219-0.995-2.219-2.221v-99.839c0-1.224,0.995-2.219,2.219-2.219H295.882 M295.882-306.446h-99.84
					c-1.236,0-2.242,1.004-2.242,2.243v99.839c0,1.237,1.005,2.242,2.242,2.242h99.84c1.236,0,2.241-1.005,2.241-2.242v-99.839
					C298.124-305.442,297.119-306.446,295.882-306.446L295.882-306.446z"/>
			</g>
			<path fill="none" stroke="#096D42" stroke-opacity="0" d="M196.042-202.318c-1.056,0-1.915-0.859-1.915-1.917v-99.839
				c0-1.056,0.859-1.915,1.915-1.915h99.84c1.055,0,1.916,0.859,1.916,1.915v99.84c0,1.056-0.861,1.917-1.916,1.917L196.042-202.318
				L196.042-202.318z"/>
		</g>
		<g>
			<g opacity="0">
				<path d="M287.467-295.115v81.228h-22.394v-29.07v-0.348h-0.347h-37.53h-0.348v0.348v29.07h-22.393v-81.228h22.393v29.069v0.346
					h0.348h37.53h0.347v-0.346v-29.069H287.467 M287.815-295.463h-23.086v29.417h-37.53v-29.417h-23.089v81.925h23.089v-29.418
					h37.53v29.418h23.086V-295.463L287.815-295.463z"/>
			</g>
			<g opacity="0.0455">
				<path fill="#010A06" d="M287.308-295.274v81.07h-22.077v-29.07v-0.348h-0.348H227.04h-0.348v0.348v29.07h-22.076v-81.07h22.076
					v29.07v0.347h0.348h37.844h0.348v-0.347v-29.07H287.308 M287.656-295.622h-22.772v29.417H227.04v-29.417h-22.772v81.765h22.772
					v-29.417h37.844v29.417h22.772V-295.622L287.656-295.622z"/>
			</g>
			<g opacity="0.0909">
				<path fill="#02140C" d="M287.15-295.433v80.912h-21.76v-29.069v-0.346h-0.348h-38.161h-0.348v0.346v29.069h-21.762v-80.912
					h21.762v29.068v0.348h0.348h38.16h0.348v-0.348v-29.068H287.15 M287.498-295.781h-22.456v29.417h-38.16v-29.417h-22.456v81.609
					h22.456v-29.418h38.16v29.418h22.456V-295.781L287.498-295.781z"/>
			</g>
			<g opacity="0.1364">
				<path fill="#021E12" d="M286.993-295.592v80.754h-21.445v-29.069v-0.348h-0.348h-38.476h-0.348v0.348v29.069h-21.445v-80.754
					h21.445v29.069v0.348h0.348h38.476h0.348v-0.348v-29.069H286.993 M287.34-295.939h-22.141v29.417h-38.476v-29.417h-22.14v81.449
					h22.14v-29.417h38.476v29.417h22.141V-295.939L287.34-295.939z"/>
			</g>
			<g opacity="0.1818">
				<path fill="#032818" d="M286.834-295.75v80.596h-21.128v-29.07v-0.347h-0.348h-38.792h-0.349v0.347v29.07h-21.128v-80.596
					h21.128v29.069v0.348h0.349h38.792h0.348v-0.348v-29.069H286.834 M287.183-296.099h-21.824v29.418h-38.792v-29.418h-21.825
					v81.293h21.825v-29.418h38.792v29.418h21.824V-296.099L287.183-296.099z"/>
			</g>
			<g opacity="0.2273">
				<path fill="#04321E" d="M286.677-295.909v80.438h-20.812v-29.069v-0.348h-0.348h-39.108h-0.348v0.348v29.069h-20.813v-80.438
					h20.813v29.069v0.347h0.348h39.108h0.348v-0.347v-29.069H286.677 M287.025-296.255h-21.509v29.417h-39.108v-29.417h-21.509
					v81.134h21.509v-29.418h39.108v29.417h21.509V-296.255L287.025-296.255z"/>
			</g>
			<g opacity="0.2727">
				<path fill="#053B24" d="M286.518-296.066v80.282h-20.495v-29.069v-0.348h-0.348h-39.427h-0.347v0.348v29.069h-20.496v-80.282
					h20.496v29.069v0.347h0.347h39.426h0.348v-0.347v-29.069H286.518 M286.866-296.414h-21.19v29.417h-39.426v-29.417h-21.191
					v80.977h21.191v-29.417h39.426v29.417h21.19V-296.414L286.866-296.414z"/>
			</g>
			<g opacity="0.3182">
				<path fill="#06452A" d="M286.361-296.224v80.123h-20.181v-29.07v-0.347h-0.348h-39.742h-0.347v0.347v29.07h-20.18v-80.123h20.18
					v29.07v0.347h0.347h39.74h0.348v-0.347v-29.07H286.361 M286.709-296.573h-20.876v29.417h-39.74v-29.417h-20.875v80.819h20.875
					v-29.418h39.74v29.418h20.876V-296.573L286.709-296.573z"/>
			</g>
			<g opacity="0.3636">
				<path fill="#074F30" d="M286.202-296.382v79.965h-19.865v-29.07v-0.348h-0.347h-40.058h-0.348v0.347v29.07H205.72v-79.963
					h19.865v29.07v0.348h0.348h40.058h0.347v-0.348v-29.07H286.202 M286.55-296.731h-20.558v29.417h-40.059v-29.417h-20.56v80.659
					h20.56v-29.416h40.059v29.416h20.559L286.55-296.731L286.55-296.731z"/>
			</g>
			<g opacity="0.4091">
				<path fill="#075936" d="M286.045-296.542v79.807h-19.55v-29.069v-0.347h-0.347h-40.374h-0.348v0.347v29.069h-19.548v-79.807
					h19.548v29.07v0.348h0.348h40.374h0.347v-0.348v-29.07H286.045 M286.394-296.889h-20.245v29.417h-40.374v-29.417h-20.244v80.501
					h20.244v-29.417h40.374v29.417h20.244L286.394-296.889L286.394-296.889z"/>
			</g>
			<g opacity="0.4545">
				<path fill="#08633C" d="M285.887-296.699v79.648h-19.231v-29.069v-0.348h-0.348h-40.689h-0.349v0.348v29.069h-19.231v-79.648
					h19.231v29.069v0.348h0.349h40.689h0.348v-0.348v-29.069H285.887 M286.233-297.047h-19.926v29.417h-40.689v-29.417H205.69
					v80.345h19.928v-29.417h40.689v29.417h19.926V-297.047L286.233-297.047z"/>
			</g>
			<g opacity="0.5">
				<path fill="#096D42" d="M285.729-296.858v79.492h-18.917v-29.07v-0.348h-0.348h-41.006h-0.348v0.348v29.07h-18.917v-79.492
					h18.917v29.068v0.348h0.348h41.006h0.348v-0.348v-29.068H285.729 M286.076-297.207h-19.611v29.417h-41.006v-29.417h-19.613
					v80.188h19.613v-29.417h41.006v29.417h19.611V-297.207L286.076-297.207z"/>
			</g>
		</g>
		
			<radialGradient id="SVGID_3_" cx="725.3169" cy="-628.3096" r="164.5236" gradientTransform="matrix(1 0 0 -1 -477.3574 -802.7471)" gradientUnits="userSpaceOnUse">
			<stop  offset="0.0245" style="stop-color:#52D5A1"/>
			<stop  offset="0.1701" style="stop-color:#3BCB92"/>
			<stop  offset="0.3291" style="stop-color:#29C385"/>
			<stop  offset="0.4417" style="stop-color:#22C081"/>
			<stop  offset="0.449" style="stop-color:#24C182"/>
			<stop  offset="0.5627" style="stop-color:#3DCC93"/>
			<stop  offset="0.6659" style="stop-color:#4DD39D"/>
			<stop  offset="0.7485" style="stop-color:#52D5A1"/>
			<stop  offset="1" style="stop-color:#80F5C6"/>
		</radialGradient>
		<polygon fill="url(#SVGID_3_)" points="266.465,-295.466 266.465,-266.048 225.459,-266.048 225.459,-295.466 205.849,-295.466 
			205.849,-217.019 225.459,-217.019 225.459,-246.437 266.465,-246.437 266.465,-217.019 286.076,-217.019 286.076,-295.466 		"/>
		<path fill="#A1FFDA" d="M295.882-199.192h-99.84c-3.938,0-7.132-3.193-7.132-7.131v1.392c0,3.938,3.194,7.131,7.132,7.131h99.84
			c3.938,0,7.131-3.193,7.131-7.131v-1.392C303.013-202.385,299.82-199.192,295.882-199.192z"/>
		<path fill="#075734" d="M295.882-311.902h-99.84c-3.938,0-7.132,3.193-7.132,7.131v-1.392c0-3.937,3.194-7.131,7.132-7.131h99.84
			c3.938,0,7.131,3.194,7.131,7.131v1.392C303.013-308.709,299.82-311.902,295.882-311.902z"/>
		<g>
			<rect x="225.459" y="-267.789" fill="#A1FFDA" width="41.006" height="1.74"/>
			<rect x="205.849" y="-297.207" fill="#A1FFDA" width="19.611" height="1.741"/>
			<rect x="266.465" y="-297.207" fill="#A1FFDA" width="19.611" height="1.741"/>
		</g>
	</g>
</g>
</svg>
