<?xml version="1.0" encoding="utf-8"?>
<!-- Generator: Adobe Illustrator 14.0.0, SVG Export Plug-In . SVG Version: 6.00 Build 43363)  -->
<!DOCTYPE svg PUBLIC "-//W3C//DTD SVG 1.1//EN" "http://www.w3.org/Graphics/SVG/1.1/DTD/svg11.dtd">
<svg version="1.1" id="Layer_1" xmlns="http://www.w3.org/2000/svg" xmlns:xlink="http://www.w3.org/1999/xlink" x="0px" y="0px"
	 width="622.284px" height="170.614px" viewBox="-296.634 -131.907 622.284 170.614"
	 enable-background="new -296.634 -131.907 622.284 170.614" xml:space="preserve">
<g>
	<path fill="#0C8A54" d="M-66.379-68.595c-2.606-3.021-5.759-5.498-9.365-7.359c-3.668-1.895-7.799-2.854-12.276-2.854
		c-4.29,0-8.332,0.896-12.015,2.66c-3.645,1.749-6.846,4.14-9.516,7.104c-2.654,2.951-4.762,6.388-6.263,10.214
		c-1.505,3.837-2.269,7.903-2.269,12.089c0,4.006,0.717,7.977,2.129,11.801c1.414,3.834,3.449,7.288,6.047,10.268
		c2.611,2.998,5.785,5.437,9.43,7.242c3.686,1.828,7.82,2.756,12.289,2.756c4.294,0,8.337-0.896,12.016-2.661
		c3.646-1.746,6.832-4.124,9.475-7.062c2.628-2.924,4.722-6.346,6.22-10.17c1.506-3.836,2.271-7.904,2.271-12.088
		c0-3.949-0.717-7.879-2.131-11.681C-61.752-62.137-63.784-65.588-66.379-68.595z M-88.104-25.442c-2.729,0-5.232-0.572-7.441-1.701
		c-2.248-1.147-4.197-2.719-5.795-4.666c-1.623-1.979-2.898-4.287-3.789-6.86c-0.897-2.586-1.353-5.302-1.353-8.072
		c0-2.663,0.442-5.312,1.313-7.875c0.865-2.547,2.114-4.842,3.713-6.82c1.574-1.95,3.518-3.549,5.773-4.753
		c2.2-1.174,4.75-1.769,7.577-1.769c2.67,0,5.129,0.569,7.308,1.696c2.232,1.154,4.19,2.72,5.821,4.648
		c1.642,1.947,2.927,4.233,3.813,6.798c0.896,2.592,1.352,5.308,1.352,8.073c0,2.612-0.43,5.241-1.275,7.809
		c-0.841,2.547-2.076,4.853-3.674,6.855c-1.578,1.979-3.523,3.604-5.781,4.834C-82.737-26.049-85.282-25.442-88.104-25.442z"/>
	<path fill="#0C8A54" d="M-12.021-55.956c-2.004-2.277-4.403-4.109-7.138-5.445c-2.771-1.354-5.85-2.041-9.146-2.041
		c-3.688,0-7.108,0.924-10.17,2.746c-1.34,0.799-2.573,1.715-3.696,2.743v-4.737h-10.517V2.695h11.351v-22.682
		c1.051,1.006,2.209,1.92,3.471,2.733c3.07,1.986,6.652,2.993,10.647,2.993c3.193,0,6.164-0.675,8.828-2.007
		c2.627-1.312,4.918-3.108,6.812-5.338c1.879-2.212,3.35-4.846,4.375-7.828c1.014-2.953,1.529-6.136,1.529-9.46
		c0-3.177-0.564-6.28-1.675-9.226C-8.461-51.062-10.036-53.7-12.021-55.956z M-24.513-25.758c-1.478,0.773-3.1,1.15-4.961,1.15
		c-1.256,0-2.478-0.223-3.633-0.664c-1.211-0.459-2.365-1.098-3.437-1.902c-1.067-0.801-2.031-1.764-2.86-2.86
		c-0.767-1.013-1.414-2.107-1.935-3.263v-11.809c0.232-0.975,0.687-1.893,1.381-2.801c0.787-1.024,1.732-1.92,2.808-2.66
		c1.11-0.766,2.313-1.393,3.571-1.861c1.191-0.442,2.349-0.668,3.437-0.668c1.806,0,3.496,0.37,5.024,1.101
		c1.568,0.748,2.947,1.772,4.101,3.045c1.166,1.289,2.106,2.827,2.795,4.568c0.685,1.733,1.029,3.579,1.029,5.488
		c0,1.829-0.302,3.635-0.894,5.364c-0.588,1.714-1.44,3.262-2.539,4.604C-21.698-27.612-23.004-26.547-24.513-25.758z"/>
	<path fill="#0C8A54" d="M40.308-56.083c-2.066-2.216-4.598-4.015-7.529-5.345c-2.951-1.337-6.248-2.016-9.803-2.016
		c-3.547,0-6.854,0.662-9.824,1.965c-2.957,1.299-5.547,3.093-7.695,5.332c-2.146,2.237-3.832,4.871-5.01,7.828
		c-1.174,2.953-1.77,6.124-1.77,9.425c0,3.3,0.596,6.481,1.768,9.461c1.176,2.985,2.846,5.632,4.959,7.864
		c2.123,2.246,4.703,4.044,7.666,5.344c2.969,1.303,6.275,1.964,9.822,1.964c2.34,0,4.627-0.306,6.799-0.906
		c2.162-0.601,4.166-1.442,5.955-2.505c1.797-1.063,3.406-2.35,4.783-3.817c1.396-1.49,2.518-3.164,3.33-4.978l0.953-2.125
		l-10.316-2.852l-0.666,1.661c-0.352,0.88-0.857,1.65-1.541,2.357c-0.721,0.744-1.561,1.382-2.492,1.896
		c-0.977,0.537-2.045,0.971-3.174,1.289c-1.094,0.311-2.232,0.468-3.379,0.468c-1.615,0-3.162-0.312-4.604-0.927
		c-1.468-0.623-2.795-1.501-3.953-2.609c-1.15-1.104-2.103-2.447-2.828-4c-0.447-0.951-0.787-1.98-1.018-3.079h35.504l0.321-1.607
		c0.074-0.37,0.125-0.829,0.162-1.452c0.028-0.534,0.045-1.126,0.045-1.779c0-3.124-0.563-6.188-1.678-9.105
		C43.98-51.26,42.369-53.866,40.308-56.083z M22.976-53.929c1.68,0,3.283,0.304,4.764,0.898c1.488,0.601,2.812,1.438,3.934,2.485
		c1.125,1.056,2.076,2.364,2.828,3.893c0.439,0.893,0.777,1.842,1.01,2.838H10.596c0.223-1,0.54-1.947,0.954-2.832
		c0.699-1.494,1.623-2.796,2.746-3.871c1.115-1.067,2.433-1.914,3.914-2.512C19.691-53.629,21.294-53.929,22.976-53.929z"/>
	<path fill="#0C8A54" d="M90.914-57.264c-1.184-1.936-2.781-3.467-4.752-4.552c-1.963-1.079-4.395-1.626-7.229-1.626
		c-4.172,0-8.086,1.015-11.631,3.015c-1.676,0.945-3.176,2.049-4.492,3.304v-5.565H52.128v47.596h11.35v-28.004
		c0.434-1.346,1.064-2.598,1.879-3.729c0.879-1.223,1.918-2.285,3.084-3.16c1.184-0.888,2.457-1.601,3.783-2.115
		c1.266-0.492,2.539-0.741,3.785-0.741c2.236,0,3.766,0.729,4.812,2.288c1.188,1.771,1.791,4.824,1.791,9.074v26.387h11.351v-28.058
		c0-2.729-0.224-5.297-0.662-7.635C92.841-53.24,92.039-55.421,90.914-57.264z"/>
	<polygon fill="#0C8A54" points="143.917,-52.751 115.261,-52.751 115.261,-78.391 103.744,-78.391 103.744,-15.095 
		115.261,-15.095 115.261,-42.07 143.917,-42.07 143.917,-15.095 155.431,-15.095 155.431,-78.391 143.917,-78.391 	"/>
	<path fill="#0C8A54" d="M203.384-25.473c-0.002,0-0.004,0-0.004,0c-0.031-0.063-0.09-0.264-0.09-0.641v-17.789
		c0-6.111-1.84-10.955-5.469-14.396c-3.601-3.411-8.502-5.143-14.572-5.143c-3.211,0-6.35,0.514-9.33,1.527
		c-2.934,0.998-5.928,2.508-8.898,4.487l-1.479,0.986l4.272,8.398l1.886-1.322c4.479-3.142,8.76-4.732,12.717-4.732
		c3.146,0,5.467,0.804,7.094,2.453c1.638,1.658,2.433,3.944,2.433,6.988v0.729c-1.068-0.301-2.209-0.561-3.41-0.775
		c-2.283-0.409-4.564-0.616-6.783-0.616c-2.84,0-5.51,0.35-7.938,1.037c-2.474,0.703-4.652,1.732-6.479,3.063
		c-1.888,1.376-3.365,3.068-4.394,5.029c-1.039,1.979-1.563,4.188-1.563,6.566c0,2.121,0.438,4.155,1.31,6.053
		c0.862,1.886,2.08,3.54,3.614,4.916c1.515,1.356,3.326,2.439,5.388,3.22c2.057,0.778,4.315,1.174,6.721,1.174
		c1.639,0,3.312-0.185,4.979-0.547c1.664-0.361,3.307-0.915,4.881-1.642c1.58-0.73,3.091-1.654,4.486-2.746
		c0.195-0.153,0.389-0.312,0.578-0.471c0.5,1.979,1.699,3.061,2.709,3.639c1.471,0.84,3.012,1.266,4.584,1.266
		c0.506,0,1.057-0.031,1.643-0.096c0.554-0.062,1.146-0.155,1.755-0.277l1.608-0.319v-9.919l-1.93-0.067
		C203.511-25.447,203.413-25.473,203.384-25.473z M174.927-34.934c1.938-1.299,4.625-1.958,7.988-1.958
		c1.646,0,3.393,0.171,5.184,0.509c1.326,0.25,2.613,0.581,3.843,0.986v5.023c0,0.544-0.392,1.295-1.086,2.1
		c-1.085,1.226-2.628,2.295-4.585,3.176s-3.985,1.327-6.026,1.327c-1.306,0-2.468-0.193-3.455-0.576
		c-0.979-0.378-1.804-0.874-2.447-1.476c-0.637-0.595-1.11-1.265-1.448-2.047c-0.338-0.781-0.504-1.572-0.504-2.42
		C172.388-32.299,173.195-33.772,174.927-34.934z"/>
	<path fill="#0C8A54" d="M243.501-30.036c-0.24,0.68-0.639,1.303-1.223,1.905c-0.652,0.677-1.428,1.281-2.297,1.8
		c-0.881,0.522-1.875,0.946-2.961,1.26c-1.061,0.309-2.152,0.465-3.242,0.465c-1.695,0-3.305-0.356-4.775-1.059
		c-1.506-0.718-2.836-1.723-3.959-2.988c-1.143-1.288-2.072-2.842-2.764-4.617c-0.688-1.761-1.033-3.68-1.033-5.705
		c0-2.082,0.334-4.003,0.994-5.711c0.662-1.719,1.562-3.229,2.68-4.49c1.086-1.227,2.404-2.197,3.92-2.885
		c1.514-0.686,3.148-1.033,4.855-1.033c2.113,0,3.977,0.476,5.689,1.45c1.688,0.961,2.965,2.274,3.906,4.018l0.785,1.449
		l10.998-3.453l-1.051-2.1c-1.779-3.556-4.434-6.427-7.889-8.537c-3.451-2.105-7.58-3.175-12.275-3.175
		c-3.605,0-6.928,0.662-9.871,1.969c-2.928,1.297-5.488,3.076-7.605,5.287c-2.125,2.215-3.783,4.84-4.93,7.801
		c-1.146,2.946-1.723,6.111-1.723,9.41s0.594,6.481,1.768,9.461c1.176,2.984,2.844,5.631,4.959,7.864
		c2.117,2.243,4.691,4.052,7.648,5.378c2.975,1.336,6.285,2.013,9.838,2.013c2.34,0,4.615-0.306,6.762-0.908
		c2.129-0.601,4.1-1.426,5.861-2.455c1.783-1.048,3.363-2.331,4.691-3.814c1.346-1.5,2.406-3.182,3.158-4.998l0.842-2.039
		l-11.125-3.362L243.501-30.036z"/>
	<polygon fill="#0C8A54" points="286.147,-42.379 305.629,-62.606 291.989,-62.606 272.442,-42.842 272.442,-80.061 
		261.093,-80.061 261.093,-15.095 272.442,-15.095 272.442,-29.677 278.487,-35.358 292.79,-15.095 305.65,-15.095 	"/>
</g>
<g>
	<g>
		
			<radialGradient id="SVGID_1_" cx="211.6621" cy="847.5842" r="134.3914" gradientTransform="matrix(1 0 0 1 -421.3574 -827.3613)" gradientUnits="userSpaceOnUse">
			<stop  offset="0.0245" style="stop-color:#52D5A1"/>
			<stop  offset="0.1701" style="stop-color:#3BCB92"/>
			<stop  offset="0.3291" style="stop-color:#29C385"/>
			<stop  offset="0.4417" style="stop-color:#22C081"/>
			<stop  offset="0.449" style="stop-color:#24C182"/>
			<stop  offset="0.5627" style="stop-color:#3DCC93"/>
			<stop  offset="0.6659" style="stop-color:#4DD39D"/>
			<stop  offset="0.7485" style="stop-color:#52D5A1"/>
			<stop  offset="1" style="stop-color:#80F5C6"/>
		</radialGradient>
		<path fill="url(#SVGID_1_)" stroke="#098B55" d="M-146.02-5.783c0,13.525-10.964,24.49-24.49,24.49h-81.633
			c-13.526,0-24.49-10.965-24.49-24.49v-81.634c0-13.525,10.964-24.49,24.49-24.49h81.634c13.525,0,24.49,10.965,24.49,24.49
			L-146.02-5.783L-146.02-5.783z"/>
		
			<linearGradient id="SVGID_2_" gradientUnits="userSpaceOnUse" x1="210.0308" y1="827.3635" x2="210.0308" y2="734.1594" gradientTransform="matrix(1 0 0 1 -421.3574 -827.3613)">
			<stop  offset="0" style="stop-color:#05A562"/>
			<stop  offset="0.2227" style="stop-color:#069E5F"/>
			<stop  offset="0.5418" style="stop-color:#098B55"/>
			<stop  offset="0.546" style="stop-color:#098B55"/>
		</linearGradient>
		<path fill="url(#SVGID_2_)" d="M-164.725-5.823c0,3.217-2.608,5.825-5.826,5.825h-81.554c-3.217,0-5.826-2.608-5.826-5.825
			v-81.555c0-3.217,2.609-5.825,5.826-5.825h81.554c3.217,0,5.826,2.608,5.826,5.825V-5.823L-164.725-5.823z"/>
		<g>
			<g>
				<path fill="#096D42" d="M-170.55-92.919c3.056,0,5.541,2.486,5.541,5.541v81.554c0,3.056-2.485,5.541-5.541,5.541h-81.554
					c-3.055,0-5.542-2.485-5.542-5.541v-81.554c0-3.055,2.486-5.541,5.542-5.541L-170.55-92.919 M-170.55-93.203h-81.554
					c-3.217,0-5.826,2.609-5.826,5.826v81.555c0,3.216,2.609,5.825,5.826,5.825h81.554c3.217,0,5.826-2.608,5.826-5.825v-81.555
					C-164.725-90.594-167.333-93.203-170.55-93.203L-170.55-93.203z"/>
			</g>
			<g opacity="0.9375">
				<path fill="none" stroke="#096D42" stroke-width="0.0625" d="M-252.104-0.158c-3.07,0-5.559-2.488-5.559-5.559v-81.554
					c0-3.07,2.489-5.559,5.559-5.559h81.554c3.071,0,5.559,2.489,5.559,5.559v81.554c0,3.071-2.488,5.559-5.559,5.559H-252.104
					L-252.104-0.158z"/>
				<path fill="#096D42" d="M-170.55-92.563c2.918,0,5.293,2.374,5.293,5.292v81.554c0,2.918-2.375,5.293-5.293,5.293h-81.554
					c-2.919,0-5.293-2.374-5.293-5.293v-81.554c0-2.918,2.375-5.292,5.293-5.292H-170.55 M-170.55-92.83h-81.554
					c-3.07,0-5.559,2.489-5.559,5.559v81.554c0,3.071,2.489,5.559,5.559,5.559h81.554c3.071,0,5.559-2.488,5.559-5.559v-81.554
					C-164.991-90.341-167.479-92.83-170.55-92.83L-170.55-92.83z"/>
			</g>
			<g opacity="0.875">
				<path fill="none" stroke="#096D42" stroke-width="0.125" d="M-252.104-0.317c-2.923,0-5.293-2.37-5.293-5.292v-81.555
					c0-2.922,2.37-5.292,5.293-5.292h81.554c2.923,0,5.293,2.37,5.293,5.292V-5.61c0,2.923-2.371,5.293-5.293,5.293L-252.104-0.317
					L-252.104-0.317z"/>
				<path fill="#096D42" d="M-170.55-92.208c2.782,0,5.045,2.263,5.045,5.044v81.555c0,2.781-2.264,5.044-5.045,5.044h-81.554
					c-2.781,0-5.044-2.263-5.044-5.044v-81.555c0-2.781,2.263-5.044,5.044-5.044H-170.55 M-170.55-92.456h-81.554
					c-2.923,0-5.293,2.37-5.293,5.292v81.555c0,2.922,2.37,5.292,5.293,5.292h81.554c2.923,0,5.293-2.37,5.293-5.292v-81.555
					C-165.257-90.087-167.627-92.456-170.55-92.456L-170.55-92.456z"/>
			</g>
			<g opacity="0.8125">
				<path fill="none" stroke="#096D42" stroke-width="0.1875" d="M-252.104-0.476c-2.776,0-5.026-2.25-5.026-5.026v-81.555
					c0-2.776,2.25-5.026,5.026-5.026h81.554c2.775,0,5.027,2.25,5.027,5.026v81.555c0,2.775-2.251,5.025-5.027,5.025L-252.104-0.476
					L-252.104-0.476z"/>
				<path fill="#096D42" d="M-170.55-91.853c2.645,0,4.796,2.151,4.796,4.795v81.555c0,2.645-2.151,4.795-4.796,4.795h-81.554
					c-2.644,0-4.796-2.151-4.796-4.795v-81.555c0-2.644,2.152-4.795,4.796-4.795H-170.55 M-170.55-92.084h-81.554
					c-2.776,0-5.026,2.25-5.026,5.026v81.555c0,2.775,2.25,5.025,5.026,5.025h81.554c2.775,0,5.027-2.25,5.027-5.025v-81.555
					C-165.523-89.833-167.775-92.084-170.55-92.084L-170.55-92.084z"/>
			</g>
			<g opacity="0.75">
				<path fill="none" stroke="#096D42" stroke-width="0.25" d="M-252.104-0.636c-2.628,0-4.761-2.132-4.761-4.759V-86.95
					c0-2.628,2.132-4.76,4.761-4.76h81.554c2.629,0,4.761,2.132,4.761,4.76v81.555c0,2.628-2.132,4.759-4.761,4.759H-252.104
					L-252.104-0.636z"/>
				<path fill="#096D42" d="M-170.55-91.498c2.507,0,4.547,2.04,4.547,4.547v81.555c0,2.507-2.04,4.546-4.547,4.546h-81.554
					c-2.507,0-4.547-2.039-4.547-4.546V-86.95c0-2.508,2.041-4.547,4.547-4.547H-170.55 M-170.55-91.711h-81.554
					c-2.628,0-4.761,2.132-4.761,4.76v81.555c0,2.628,2.132,4.759,4.761,4.759h81.554c2.629,0,4.761-2.131,4.761-4.759V-86.95
					C-165.79-89.579-167.921-91.711-170.55-91.711L-170.55-91.711z"/>
			</g>
			<g opacity="0.6875">
				<path fill="none" stroke="#096D42" stroke-width="0.3125" d="M-252.104-0.796c-2.481,0-4.494-2.013-4.494-4.494v-81.554
					c0-2.481,2.012-4.493,4.494-4.493h81.554c2.481,0,4.494,2.012,4.494,4.493V-5.29c0,2.481-2.013,4.494-4.494,4.494H-252.104
					L-252.104-0.796z"/>
				<path fill="#096D42" d="M-170.55-91.142c2.371,0,4.299,1.928,4.299,4.298V-5.29c0,2.372-1.928,4.299-4.299,4.299h-81.554
					c-2.371,0-4.298-1.928-4.298-4.299v-81.554c0-2.37,1.928-4.298,4.298-4.298H-170.55 M-170.55-91.338h-81.554
					c-2.481,0-4.494,2.012-4.494,4.494v81.555c0,2.48,2.012,4.493,4.494,4.493h81.554c2.481,0,4.494-2.012,4.494-4.493v-81.556
					C-166.056-89.325-168.068-91.338-170.55-91.338L-170.55-91.338z"/>
			</g>
			<g opacity="0.625">
				<path fill="none" stroke="#096D42" stroke-width="0.375" d="M-252.104-0.955c-2.334,0-4.228-1.893-4.228-4.228v-81.554
					c0-2.334,1.894-4.228,4.228-4.228h81.554c2.335,0,4.228,1.893,4.228,4.228v81.554c0,2.335-1.893,4.228-4.228,4.228H-252.104
					L-252.104-0.955z"/>
				<path fill="#096D42" d="M-170.55-90.787c2.233,0,4.05,1.817,4.05,4.05v81.554c0,2.233-1.816,4.05-4.05,4.05h-81.554
					c-2.233,0-4.05-1.816-4.05-4.05v-81.554c0-2.233,1.817-4.05,4.05-4.05L-170.55-90.787 M-170.55-90.965h-81.554
					c-2.334,0-4.228,1.893-4.228,4.227v81.554c0,2.335,1.894,4.228,4.228,4.228h81.554c2.335,0,4.228-1.893,4.228-4.228v-81.554
					C-166.323-89.072-168.216-90.965-170.55-90.965L-170.55-90.965z"/>
			</g>
			<g opacity="0.5625">
				<path fill="none" stroke="#096D42" stroke-width="0.4375" d="M-252.104-1.115c-2.188,0-3.961-1.774-3.961-3.96v-81.555
					c0-2.188,1.773-3.961,3.961-3.961h81.554c2.187,0,3.961,1.773,3.961,3.961v81.554c0,2.187-1.774,3.961-3.961,3.961H-252.104
					L-252.104-1.115z"/>
				<path fill="#096D42" d="M-170.55-90.432c2.096,0,3.802,1.706,3.802,3.801v81.555c0,2.097-1.706,3.801-3.802,3.801h-81.554
					c-2.097,0-3.802-1.705-3.802-3.801v-81.555c0-2.097,1.706-3.802,3.802-3.802L-170.55-90.432 M-170.55-90.593h-81.554
					c-2.188,0-3.961,1.774-3.961,3.961v81.554c0,2.187,1.773,3.961,3.961,3.961h81.554c2.187,0,3.961-1.774,3.961-3.961v-81.554
					C-166.588-88.818-168.363-90.593-170.55-90.593L-170.55-90.593z"/>
			</g>
			<g opacity="0.5">
				<path fill="none" stroke="#096D42" stroke-width="0.5" d="M-252.104-1.275c-2.04,0-3.695-1.655-3.695-3.695v-81.554
					c0-2.04,1.655-3.694,3.695-3.694h81.554c2.041,0,3.695,1.655,3.695,3.694v81.555c0,2.039-1.654,3.693-3.695,3.693
					L-252.104-1.275L-252.104-1.275z"/>
				<path fill="#096D42" d="M-170.55-90.077c1.958,0,3.553,1.594,3.553,3.553v81.555c0,1.959-1.594,3.552-3.553,3.552h-81.554
					c-1.959,0-3.553-1.593-3.553-3.552v-81.555c0-1.958,1.594-3.553,3.553-3.553H-170.55 M-170.55-90.219h-81.554
					c-2.04,0-3.695,1.655-3.695,3.694v81.555c0,2.039,1.655,3.693,3.695,3.693h81.554c2.041,0,3.695-1.654,3.695-3.693v-81.555
					C-166.855-88.564-168.509-90.219-170.55-90.219L-170.55-90.219z"/>
			</g>
			<g opacity="0.4375">
				<path fill="none" stroke="#096D42" stroke-width="0.5625" d="M-252.104-1.435c-1.893,0-3.429-1.535-3.429-3.428v-81.555
					c0-1.893,1.536-3.429,3.429-3.429h81.554c1.893,0,3.429,1.536,3.429,3.429v81.555c0,1.892-1.535,3.428-3.429,3.428H-252.104
					L-252.104-1.435z"/>
				<path fill="#096D42" d="M-170.55-89.722c1.822,0,3.305,1.482,3.305,3.304v81.555c0,1.821-1.482,3.304-3.305,3.304h-81.554
					c-1.822,0-3.305-1.482-3.305-3.304v-81.555c0-1.822,1.483-3.304,3.305-3.304H-170.55 M-170.55-89.846h-81.554
					c-1.893,0-3.429,1.536-3.429,3.429v81.555c0,1.892,1.536,3.428,3.429,3.428h81.554c1.893,0,3.429-1.535,3.429-3.428v-81.555
					C-167.122-88.311-168.657-89.846-170.55-89.846L-170.55-89.846z"/>
			</g>
			<g opacity="0.375">
				<path fill="none" stroke="#096D42" stroke-width="0.625" d="M-252.104-1.595c-1.746,0-3.163-1.416-3.163-3.162v-81.554
					c0-1.746,1.417-3.163,3.163-3.163h81.554c1.746,0,3.163,1.417,3.163,3.163v81.555c0,1.746-1.417,3.162-3.163,3.162
					L-252.104-1.595L-252.104-1.595z"/>
				<path fill="#096D42" d="M-170.55-89.367c1.686,0,3.056,1.371,3.056,3.056v81.555c0,1.685-1.371,3.056-3.056,3.056h-81.554
					c-1.686,0-3.056-1.371-3.056-3.056v-81.555c0-1.686,1.37-3.056,3.056-3.056H-170.55 M-170.55-89.473h-81.554
					c-1.746,0-3.163,1.417-3.163,3.163v81.555c0,1.746,1.417,3.162,3.163,3.162h81.554c1.746,0,3.163-1.416,3.163-3.162v-81.555
					C-167.388-88.056-168.805-89.473-170.55-89.473L-170.55-89.473z"/>
			</g>
			<g opacity="0.3125">
				<path fill="none" stroke="#096D42" stroke-width="0.6875" d="M-252.104-1.755c-1.599,0-2.896-1.297-2.896-2.896v-81.554
					c0-1.598,1.297-2.896,2.896-2.896h81.554c1.599,0,2.896,1.298,2.896,2.896V-4.65c0,1.599-1.298,2.896-2.896,2.896H-252.104
					L-252.104-1.755z"/>
				<path fill="#096D42" d="M-170.55-89.012c1.547,0,2.808,1.26,2.808,2.808V-4.65c0,1.547-1.261,2.807-2.808,2.807h-81.554
					c-1.548,0-2.808-1.259-2.808-2.807v-81.554c0-1.548,1.259-2.807,2.808-2.807L-170.55-89.012 M-170.55-89.1h-81.554
					c-1.599,0-2.896,1.298-2.896,2.896V-4.65c0,1.599,1.297,2.896,2.896,2.896h81.554c1.599,0,2.896-1.297,2.896-2.896v-81.554
					C-167.654-87.802-168.952-89.1-170.55-89.1L-170.55-89.1z"/>
			</g>
			<g opacity="0.25">
				<path fill="none" stroke="#096D42" stroke-width="0.75" d="M-252.104-1.914c-1.452,0-2.63-1.178-2.63-2.63v-81.553
					c0-1.452,1.179-2.63,2.63-2.63h81.554c1.451,0,2.63,1.178,2.63,2.63v81.554c0,1.452-1.178,2.63-2.63,2.63L-252.104-1.914
					L-252.104-1.914z"/>
				<path fill="#096D42" d="M-170.55-88.656c1.411,0,2.559,1.148,2.559,2.559v81.555c0,1.411-1.147,2.559-2.559,2.559h-81.554
					c-1.411,0-2.559-1.147-2.559-2.559v-81.555c0-1.411,1.148-2.56,2.559-2.56L-170.55-88.656 M-170.55-88.727h-81.554
					c-1.452,0-2.63,1.178-2.63,2.63v81.555c0,1.451,1.179,2.63,2.63,2.63h81.554c1.451,0,2.63-1.178,2.63-2.63v-81.555
					C-167.921-87.549-169.098-88.727-170.55-88.727L-170.55-88.727z"/>
			</g>
			<g opacity="0.1875">
				<path fill="none" stroke="#096D42" stroke-width="0.8125" d="M-252.104-2.073c-1.304,0-2.364-1.059-2.364-2.363v-81.556
					c0-1.305,1.06-2.363,2.364-2.363h81.554c1.304,0,2.363,1.058,2.363,2.363v81.555c0,1.304-1.059,2.363-2.363,2.363
					L-252.104-2.073L-252.104-2.073z"/>
				<path fill="#096D42" d="M-170.55-88.302c1.274,0,2.31,1.037,2.31,2.311v81.555c0,1.273-1.036,2.311-2.31,2.311h-81.554
					c-1.274,0-2.311-1.037-2.311-2.311v-81.555c0-1.274,1.036-2.31,2.311-2.31H-170.55 M-170.55-88.354h-81.554
					c-1.304,0-2.364,1.058-2.364,2.363v81.555c0,1.304,1.06,2.363,2.364,2.363h81.554c1.304,0,2.363-1.06,2.363-2.363v-81.555
					C-168.186-87.295-169.246-88.354-170.55-88.354L-170.55-88.354z"/>
			</g>
			<g opacity="0.125">
				<path fill="none" stroke="#096D42" stroke-width="0.875" d="M-252.104-2.233c-1.158,0-2.097-0.941-2.097-2.098v-81.554
					c0-1.157,0.94-2.097,2.097-2.097h81.554c1.157,0,2.098,0.94,2.098,2.097V-4.33c0,1.157-0.941,2.098-2.098,2.098H-252.104
					L-252.104-2.233z"/>
				<path fill="#096D42" d="M-170.55-87.946c1.137,0,2.062,0.924,2.062,2.061v81.555c0,1.136-0.925,2.061-2.062,2.061h-81.554
					c-1.137,0-2.062-0.925-2.062-2.061v-81.555c0-1.137,0.924-2.062,2.062-2.062L-170.55-87.946 M-170.55-87.981h-81.554
					c-1.158,0-2.097,0.94-2.097,2.097v81.555c0,1.156,0.94,2.097,2.097,2.097h81.554c1.157,0,2.098-0.941,2.098-2.097v-81.555
					C-168.453-87.042-169.393-87.981-170.55-87.981L-170.55-87.981z"/>
			</g>
			<g opacity="0.0625">
				<path fill="none" stroke="#096D42" stroke-width="0.9375" d="M-252.104-2.393c-1.01,0-1.831-0.821-1.831-1.831v-81.554
					c0-1.01,0.821-1.832,1.831-1.832h81.554c1.01,0,1.831,0.821,1.831,1.832v81.554c0,1.01-0.822,1.831-1.831,1.831L-252.104-2.393
					L-252.104-2.393z"/>
				<path fill="#096D42" d="M-170.55-87.591c1,0,1.813,0.813,1.813,1.813v81.554c0,1-0.813,1.814-1.813,1.814h-81.554
					c-1,0-1.813-0.813-1.813-1.814v-81.554c0-1,0.813-1.813,1.813-1.813H-170.55 M-170.55-87.609h-81.554
					c-1.01,0-1.831,0.821-1.831,1.832v81.554c0,1.01,0.821,1.831,1.831,1.831h81.554c1.01,0,1.831-0.821,1.831-1.831v-81.554
					C-168.719-86.788-169.54-87.609-170.55-87.609L-170.55-87.609z"/>
			</g>
			<path fill="none" stroke="#096D42" stroke-opacity="0" d="M-252.104-2.552c-0.863,0-1.565-0.702-1.565-1.565v-81.554
				c0-0.862,0.702-1.564,1.565-1.564h81.554c0.862,0,1.565,0.702,1.565,1.564v81.555c0,0.862-0.703,1.565-1.565,1.565
				L-252.104-2.552L-252.104-2.552z"/>
		</g>
		<g>
			<g opacity="0">
				<path d="M-177.424-78.353v66.351h-18.292v-23.746v-0.284h-0.283h-30.656h-0.284v0.284v23.746h-18.292v-66.351h18.292v23.745
					v0.283h0.284h30.656h0.283v-0.283v-23.745H-177.424 M-177.139-78.637h-18.859v24.029h-30.656v-24.029h-18.86v66.92h18.86v-24.03
					h30.656v24.03h18.859V-78.637L-177.139-78.637z"/>
			</g>
			<g opacity="0.0455">
				<path fill="#010A06" d="M-177.553-78.483v66.222h-18.034v-23.746v-0.284h-0.284h-30.913h-0.284v0.284v23.746h-18.033v-66.222
					h18.033v23.746v0.284h0.284h30.913h0.284v-0.284v-23.746H-177.553 M-177.269-78.767h-18.602v24.029h-30.913v-24.029h-18.602
					v66.79h18.602v-24.029h30.913v24.029h18.602V-78.767L-177.269-78.767z"/>
			</g>
			<g opacity="0.0909">
				<path fill="#02140C" d="M-177.682-78.613v66.093h-17.775v-23.745v-0.283h-0.284h-31.172h-0.284v0.283v23.745h-17.776v-66.093
					h17.776v23.745v0.284h0.284h31.171h0.284v-0.284v-23.745H-177.682 M-177.398-78.897h-18.343v24.029h-31.171v-24.029h-18.343
					v66.662h18.343v-24.03h31.171v24.03h18.343L-177.398-78.897L-177.398-78.897z"/>
			</g>
			<g opacity="0.1364">
				<path fill="#021E12" d="M-177.811-78.742v65.964h-17.518v-23.745v-0.284h-0.284h-31.429h-0.284v0.284v23.745h-17.518v-65.964
					h17.518v23.745v0.284h0.284h31.429h0.284v-0.284v-23.745H-177.811 M-177.527-79.026h-18.086v24.029h-31.429v-24.029h-18.085
					v66.532h18.085v-24.029h31.429v24.029h18.086V-79.026L-177.527-79.026z"/>
			</g>
			<g opacity="0.1818">
				<path fill="#032818" d="M-177.94-78.871v65.835h-17.259v-23.746v-0.284h-0.284h-31.688h-0.285v0.284v23.746h-17.259v-65.835
					h17.259v23.745v0.284h0.285h31.688h0.284v-0.284v-23.745H-177.94 M-177.656-79.156h-17.827v24.03h-31.688v-24.03h-17.828v66.404
					h17.828v-24.03h31.688v24.03h17.827V-79.156L-177.656-79.156z"/>
			</g>
			<g opacity="0.2273">
				<path fill="#04321E" d="M-178.069-79.001v65.706h-17.001V-37.04v-0.284h-0.284H-227.3h-0.284v0.284v23.745h-17.001v-65.706
					h17.001v23.745v0.284h0.284h31.946h0.284v-0.284v-23.745H-178.069 M-177.785-79.284h-17.569v24.029H-227.3v-24.029h-17.569
					v66.274h17.569V-37.04h31.946v24.029h17.569V-79.284L-177.785-79.284z"/>
			</g>
			<g opacity="0.2727">
				<path fill="#053B24" d="M-178.199-79.13v65.578h-16.741v-23.745v-0.284h-0.284h-32.206h-0.284v0.284v23.745h-16.742V-79.13
					h16.742v23.745v0.284h0.284h32.205h0.284v-0.284V-79.13H-178.199 M-177.915-79.414h-17.309v24.029h-32.205v-24.029h-17.311
					v66.146h17.311v-24.03h32.205v24.03h17.309L-177.915-79.414L-177.915-79.414z"/>
			</g>
			<g opacity="0.3182">
				<path fill="#06452A" d="M-178.327-79.259v65.449h-16.484v-23.746v-0.284h-0.284h-32.463h-0.284v0.284v23.746h-16.484v-65.449
					h16.484v23.746v0.283h0.284h32.462h0.284v-0.283v-23.746H-178.327 M-178.043-79.544h-17.052v24.03h-32.462v-24.03h-17.052
					v66.017h17.052v-24.03h32.462v24.03h17.052L-178.043-79.544L-178.043-79.544z"/>
			</g>
			<g opacity="0.3636">
				<path fill="#074F30" d="M-178.457-79.388v65.319h-16.226v-23.746v-0.284h-0.284h-32.721h-0.284v0.283v23.746h-16.227v-65.318
					h16.227v23.746v0.284h0.284h32.721h0.284v-0.284v-23.746H-178.457 M-178.173-79.673h-16.793v24.03h-32.721v-24.03h-16.794
					v65.887h16.794v-24.029h32.721v24.029h16.794V-79.673L-178.173-79.673z"/>
			</g>
			<g opacity="0.4091">
				<path fill="#075936" d="M-178.585-79.518v65.19h-15.969v-23.745v-0.284h-0.284h-32.979h-0.284v0.284v23.745h-15.968v-65.19
					h15.968v23.746v0.284h0.284h32.979h0.284v-0.284v-23.746H-178.585 M-178.301-79.802h-16.537v24.03h-32.979v-24.03h-16.536
					v65.758h16.536v-24.029h32.979v24.029h16.536L-178.301-79.802L-178.301-79.802z"/>
			</g>
			<g opacity="0.4545">
				<path fill="#08633C" d="M-178.715-79.647v65.061h-15.709v-23.745v-0.284h-0.284h-33.237h-0.285v0.284v23.745h-15.709v-65.061
					h15.709v23.745v0.284h0.285h33.237h0.284v-0.284v-23.745H-178.715 M-178.431-79.931h-16.277v24.029h-33.237v-24.029h-16.278
					v65.629h16.278v-24.029h33.237v24.029h16.277L-178.431-79.931L-178.431-79.931z"/>
			</g>
			<g opacity="0.5">
				<path fill="#096D42" d="M-178.844-79.777v64.933h-15.452V-38.59v-0.284h-0.284h-33.496h-0.284v0.284v23.746h-15.452v-64.933
					h15.452v23.745v0.284h0.284h33.496h0.284v-0.284v-23.745H-178.844 M-178.56-80.061h-16.02v24.029h-33.496v-24.029h-16.02v65.501
					h16.02v-24.03h33.496v24.03h16.02L-178.56-80.061L-178.56-80.061z"/>
			</g>
		</g>
		
			<radialGradient id="SVGID_3_" cx="211.6616" cy="847.5842" r="134.3911" gradientTransform="matrix(1 0 0 1 -421.3574 -827.3613)" gradientUnits="userSpaceOnUse">
			<stop  offset="0.0245" style="stop-color:#52D5A1"/>
			<stop  offset="0.1701" style="stop-color:#3BCB92"/>
			<stop  offset="0.3291" style="stop-color:#29C385"/>
			<stop  offset="0.4417" style="stop-color:#22C081"/>
			<stop  offset="0.449" style="stop-color:#24C182"/>
			<stop  offset="0.5627" style="stop-color:#3DCC93"/>
			<stop  offset="0.6659" style="stop-color:#4DD39D"/>
			<stop  offset="0.7485" style="stop-color:#52D5A1"/>
			<stop  offset="1" style="stop-color:#80F5C6"/>
		</radialGradient>
		<polygon fill="url(#SVGID_3_)" points="-194.579,-78.639 -194.579,-54.61 -228.075,-54.61 -228.075,-78.639 -244.094,-78.639 
			-244.094,-14.56 -228.075,-14.56 -228.075,-38.59 -194.579,-38.59 -194.579,-14.56 -178.56,-14.56 -178.56,-78.639 		"/>
		<path fill="#A1FFDA" d="M-170.55,0.002h-81.554c-3.217,0-5.826-2.608-5.826-5.825v1.137c0,3.217,2.609,5.825,5.826,5.825h81.554
			c3.217,0,5.826-2.608,5.826-5.825v-1.137C-164.725-2.606-167.333,0.002-170.55,0.002z"/>
		<path fill="#075734" d="M-170.55-92.065h-81.554c-3.217,0-5.826,2.608-5.826,5.825v-1.137c0-3.216,2.609-5.825,5.826-5.825h81.554
			c3.217,0,5.826,2.609,5.826,5.825v1.137C-164.725-89.457-167.333-92.065-170.55-92.065z"/>
		<g>
			<rect x="-228.075" y="-56.031" fill="#A1FFDA" width="33.496" height="1.421"/>
			<rect x="-244.094" y="-80.061" fill="#A1FFDA" width="16.02" height="1.422"/>
			<rect x="-194.579" y="-80.061" fill="#A1FFDA" width="16.02" height="1.422"/>
		</g>
	</g>
</g>
</svg>
