<?xml version="1.0" encoding="utf-8"?>
<!-- Generator: Adobe Illustrator 14.0.0, SVG Export Plug-In . SVG Version: 6.00 Build 43363)  -->
<!DOCTYPE svg PUBLIC "-//W3C//DTD SVG 1.1//EN" "http://www.w3.org/Graphics/SVG/1.1/DTD/svg11.dtd">
<svg version="1.1" id="Layer_1" xmlns="http://www.w3.org/2000/svg" xmlns:xlink="http://www.w3.org/1999/xlink" x="0px" y="0px"
	 width="459.833px" height="459.832px" viewBox="0 0 459.833 459.832" enable-background="new 0 0 459.833 459.832"
	 xml:space="preserve">
<g>
	
		<radialGradient id="SVGID_1_" cx="403.5728" cy="-439.8447" r="466.0973" gradientTransform="matrix(1 0 0 -1 -168 21.832)" gradientUnits="userSpaceOnUse">
		<stop  offset="0.0245" style="stop-color:#52D5A1"/>
		<stop  offset="0.1701" style="stop-color:#3BCB92"/>
		<stop  offset="0.3291" style="stop-color:#29C385"/>
		<stop  offset="0.4417" style="stop-color:#22C081"/>
		<stop  offset="0.449" style="stop-color:#24C182"/>
		<stop  offset="0.5627" style="stop-color:#3DCC93"/>
		<stop  offset="0.6659" style="stop-color:#4DD39D"/>
		<stop  offset="0.7485" style="stop-color:#52D5A1"/>
		<stop  offset="1" style="stop-color:#80F5C6"/>
	</radialGradient>
	<path fill="url(#SVGID_1_)" stroke="#098B55" d="M456.415,371.479c0,46.907-38.027,84.938-84.938,84.938H88.354
		c-46.911,0-84.938-38.03-84.938-84.938V88.354c0-46.91,38.027-84.938,84.938-84.938h283.125c46.908,0,84.938,38.028,84.938,84.938
		L456.415,371.479L456.415,371.479z"/>
	
		<linearGradient id="SVGID_2_" gradientUnits="userSpaceOnUse" x1="397.9155" y1="-369.7114" x2="397.9155" y2="-46.457" gradientTransform="matrix(1 0 0 -1 -168 21.832)">
		<stop  offset="0" style="stop-color:#05A562"/>
		<stop  offset="0.2227" style="stop-color:#069E5F"/>
		<stop  offset="0.5418" style="stop-color:#098B55"/>
		<stop  offset="0.546" style="stop-color:#098B55"/>
	</linearGradient>
	<path fill="url(#SVGID_2_)" d="M391.543,371.342c0,11.157-9.047,20.202-20.203,20.202H88.491c-11.158,0-20.205-9.045-20.205-20.202
		V88.492c0-11.158,9.047-20.203,20.205-20.203H371.34c11.156,0,20.203,9.045,20.203,20.203V371.342L391.543,371.342z"/>
	<g>
		<g>
			<path fill="#096D42" d="M371.34,69.272c10.596,0,19.217,8.622,19.217,19.218v282.85c0,10.596-8.621,19.217-19.217,19.217H88.491
				c-10.597,0-19.219-8.621-19.219-19.217V88.492c0-10.597,8.621-19.218,19.219-19.218H371.34 M371.34,68.287H88.491
				c-11.158,0-20.205,9.046-20.205,20.204v282.85c0,11.157,9.047,20.202,20.205,20.202H371.34c11.156,0,20.203-9.045,20.203-20.202
				V88.492C391.543,77.333,382.499,68.287,371.34,68.287L371.34,68.287z"/>
		</g>
		<g opacity="0.9375">
			<path fill="none" stroke="#096D42" stroke-width="0.0625" d="M88.491,390.989c-10.647,0-19.28-8.632-19.28-19.278V88.861
				c0-10.647,8.633-19.28,19.28-19.28H371.34c10.648,0,19.277,8.633,19.277,19.28v282.85c0,10.648-8.631,19.278-19.277,19.278
				H88.491L88.491,390.989z"/>
			<path fill="#096D42" d="M371.34,70.505c10.119,0,18.355,8.234,18.355,18.356v282.85c0,10.121-8.234,18.355-18.355,18.355H88.491
				c-10.123,0-18.357-8.232-18.357-18.355V88.861c0-10.122,8.235-18.356,18.357-18.356H371.34 M371.34,69.581H88.491
				c-10.647,0-19.28,8.633-19.28,19.28v282.85c0,10.648,8.633,19.278,19.28,19.278H371.34c10.648,0,19.277-8.632,19.277-19.278
				V88.861C390.62,78.214,381.989,69.581,371.34,69.581L371.34,69.581z"/>
		</g>
		<g opacity="0.875">
			<path fill="none" stroke="#096D42" stroke-width="0.125" d="M88.491,390.438c-10.137,0-18.357-8.22-18.357-18.356V89.23
				c0-10.137,8.22-18.356,18.357-18.356H371.34c10.137,0,18.355,8.22,18.355,18.356v282.85c0,10.138-8.221,18.355-18.355,18.355
				H88.491V390.438z"/>
			<path fill="#096D42" d="M371.34,71.737c9.646,0,17.494,7.847,17.494,17.494v282.85c0,9.646-7.85,17.494-17.494,17.494H88.491
				c-9.646,0-17.495-7.849-17.495-17.494V89.23c0-9.646,7.848-17.494,17.495-17.494L371.34,71.737 M371.34,70.875H88.491
				c-10.137,0-18.357,8.22-18.357,18.356v282.85c0,10.138,8.22,18.356,18.357,18.356H371.34c10.137,0,18.355-8.22,18.355-18.356
				V89.23C389.696,79.094,381.475,70.875,371.34,70.875L371.34,70.875z"/>
		</g>
		<g opacity="0.8125">
			<path fill="none" stroke="#096D42" stroke-width="0.1875" d="M88.491,389.883c-9.626,0-17.433-7.806-17.433-17.432V89.6
				c0-9.626,7.807-17.432,17.433-17.432H371.34c9.625,0,17.432,7.806,17.432,17.432v282.85c0,9.626-7.807,17.432-17.432,17.432
				L88.491,389.883L88.491,389.883z"/>
			<path fill="#096D42" d="M371.34,72.969c9.17,0,16.631,7.461,16.631,16.632v282.85c0,9.172-7.461,16.631-16.631,16.631H88.491
				c-9.171,0-16.633-7.459-16.633-16.631V89.6c0-9.171,7.462-16.632,16.633-16.632L371.34,72.969 M371.34,72.168H88.491
				c-9.626,0-17.433,7.806-17.433,17.432v282.85c0,9.626,7.807,17.432,17.433,17.432H371.34c9.625,0,17.432-7.806,17.432-17.432
				V89.6C388.774,79.974,380.965,72.168,371.34,72.168L371.34,72.168z"/>
		</g>
		<g opacity="0.75">
			<path fill="none" stroke="#096D42" stroke-width="0.25" d="M88.491,389.33c-9.117,0-16.51-7.396-16.51-16.51V89.971
				c0-9.116,7.394-16.509,16.51-16.509H371.34c9.117,0,16.51,7.394,16.51,16.509v282.851c0,9.113-7.393,16.508-16.51,16.508H88.491
				L88.491,389.33z"/>
			<path fill="#096D42" d="M371.34,74.201c8.693,0,15.77,7.074,15.77,15.77v282.851c0,8.695-7.076,15.769-15.77,15.769H88.491
				c-8.696,0-15.771-7.073-15.771-15.769V89.971c0-8.696,7.076-15.77,15.771-15.77H371.34 M371.34,73.461H88.491
				c-9.117,0-16.51,7.394-16.51,16.509V372.82c0,9.115,7.394,16.509,16.51,16.509H371.34c9.117,0,16.51-7.394,16.51-16.509V89.971
				C387.848,80.855,380.458,73.461,371.34,73.461L371.34,73.461z"/>
		</g>
		<g opacity="0.6875">
			<path fill="none" stroke="#096D42" stroke-width="0.3125" d="M88.491,388.775c-8.606,0-15.586-6.98-15.586-15.586V90.34
				c0-8.606,6.979-15.585,15.586-15.585H371.34c8.605,0,15.584,6.979,15.584,15.585v282.85c0,8.604-6.979,15.586-15.584,15.586
				H88.491z"/>
			<path fill="#096D42" d="M371.34,75.432c8.219,0,14.908,6.688,14.908,14.908v282.85c0,8.223-6.689,14.908-14.908,14.908H88.491
				c-8.221,0-14.909-6.687-14.909-14.908V90.34c0-8.221,6.688-14.908,14.909-14.908H371.34 M371.34,74.755H88.491
				c-8.606,0-15.586,6.979-15.586,15.586v282.851c0,8.604,6.979,15.584,15.586,15.584H371.34c8.605,0,15.584-6.979,15.584-15.584
				V90.34C386.924,81.734,379.948,74.755,371.34,74.755L371.34,74.755z"/>
		</g>
		<g opacity="0.625">
			<path fill="none" stroke="#096D42" stroke-width="0.375" d="M88.491,388.223c-8.096,0-14.663-6.564-14.663-14.662V90.71
				c0-8.096,6.567-14.662,14.663-14.662H371.34c8.096,0,14.662,6.566,14.662,14.662v282.851c0,8.097-6.566,14.66-14.662,14.66
				L88.491,388.223L88.491,388.223z"/>
			<path fill="#096D42" d="M371.34,76.665c7.742,0,14.045,6.301,14.045,14.046v282.85c0,7.744-6.301,14.045-14.045,14.045H88.491
				c-7.746,0-14.047-6.301-14.047-14.045V90.71c0-7.745,6.301-14.046,14.047-14.046L371.34,76.665 M371.34,76.049H88.491
				c-8.096,0-14.663,6.566-14.663,14.662v282.85c0,8.098,6.567,14.66,14.663,14.66H371.34c8.096,0,14.662-6.564,14.662-14.66V90.71
				C386,82.615,379.434,76.049,371.34,76.049L371.34,76.049z"/>
		</g>
		<g opacity="0.5625">
			<path fill="none" stroke="#096D42" stroke-width="0.4375" d="M88.491,387.668c-7.585,0-13.739-6.152-13.739-13.736V91.08
				c0-7.585,6.153-13.738,13.739-13.738H371.34c7.584,0,13.736,6.153,13.736,13.738v282.85c0,7.584-6.152,13.737-13.736,13.737
				L88.491,387.668L88.491,387.668z"/>
			<path fill="#096D42" d="M371.34,77.896c7.27,0,13.184,5.915,13.184,13.185v282.851c0,7.27-5.914,13.183-13.184,13.183H88.491
				c-7.271,0-13.185-5.913-13.185-13.183V91.08c0-7.27,5.915-13.185,13.185-13.185L371.34,77.896 M371.34,77.341H88.491
				c-7.585,0-13.739,6.153-13.739,13.738V373.93c0,7.584,6.153,13.736,13.739,13.736H371.34c7.584,0,13.736-6.152,13.736-13.736
				V91.08C385.079,83.495,378.924,77.341,371.34,77.341L371.34,77.341z"/>
		</g>
		<g opacity="0.5">
			<path fill="none" stroke="#096D42" stroke-width="0.5" d="M88.491,387.113c-7.075,0-12.816-5.739-12.816-12.815V91.449
				c0-7.076,5.741-12.814,12.816-12.814H371.34c7.076,0,12.814,5.74,12.814,12.814v282.85c0,7.076-5.738,12.812-12.814,12.812
				L88.491,387.113L88.491,387.113z"/>
			<path fill="#096D42" d="M371.34,79.127c6.791,0,12.322,5.528,12.322,12.322v282.85c0,6.794-5.529,12.321-12.322,12.321H88.491
				c-6.794,0-12.323-5.524-12.323-12.321V91.449c0-6.794,5.528-12.322,12.323-12.322H371.34 M371.34,78.635H88.491
				c-7.075,0-12.816,5.74-12.816,12.814v282.85c0,7.076,5.741,12.812,12.816,12.812H371.34c7.076,0,12.814-5.736,12.814-12.812
				V91.449C384.155,84.375,378.417,78.635,371.34,78.635L371.34,78.635z"/>
		</g>
		<g opacity="0.4375">
			<path fill="none" stroke="#096D42" stroke-width="0.5625" d="M88.491,386.561c-6.565,0-11.892-5.326-11.892-11.891V91.819
				c0-6.565,5.327-11.891,11.892-11.891H371.34c6.564,0,11.891,5.326,11.891,11.891V374.67c0,6.562-5.324,11.891-11.891,11.891
				H88.491L88.491,386.561z"/>
			<path fill="#096D42" d="M371.34,80.359c6.318,0,11.459,5.142,11.459,11.46V374.67c0,6.318-5.141,11.46-11.459,11.46H88.491
				c-6.32,0-11.461-5.142-11.461-11.46V91.819c0-6.319,5.142-11.46,11.461-11.46H371.34 M371.34,79.928H88.491
				c-6.565,0-11.892,5.326-11.892,11.891V374.67c0,6.562,5.327,11.891,11.892,11.891H371.34c6.564,0,11.891-5.326,11.891-11.891
				V91.819C383.231,85.254,377.905,79.928,371.34,79.928L371.34,79.928z"/>
		</g>
		<g opacity="0.375">
			<path fill="none" stroke="#096D42" stroke-width="0.625" d="M88.491,386.005c-6.055,0-10.969-4.911-10.969-10.966V92.189
				c0-6.054,4.914-10.967,10.969-10.967H371.34c6.053,0,10.967,4.914,10.967,10.967V375.04c0,6.056-4.914,10.968-10.967,10.968
				H88.491V386.005z"/>
			<path fill="#096D42" d="M371.34,81.591c5.844,0,10.598,4.754,10.598,10.598V375.04c0,5.845-4.754,10.599-10.598,10.599H88.491
				c-5.845,0-10.599-4.754-10.599-10.599V92.189c0-5.844,4.754-10.598,10.599-10.598H371.34 M371.34,81.222H88.491
				c-6.055,0-10.969,4.914-10.969,10.967V375.04c0,6.056,4.914,10.968,10.969,10.968H371.34c6.053,0,10.967-4.912,10.967-10.968
				V92.189C382.307,86.135,377.393,81.222,371.34,81.222L371.34,81.222z"/>
		</g>
		<g opacity="0.3125">
			<path fill="none" stroke="#096D42" stroke-width="0.6875" d="M88.491,385.452c-5.544,0-10.045-4.5-10.045-10.043V92.559
				c0-5.543,4.501-10.044,10.045-10.044H371.34c5.543,0,10.043,4.501,10.043,10.044v282.85c0,5.543-4.5,10.043-10.043,10.043H88.491
				L88.491,385.452z"/>
			<path fill="#096D42" d="M371.34,82.822c5.365,0,9.736,4.368,9.736,9.736v282.85c0,5.367-4.371,9.734-9.736,9.734H88.491
				c-5.369,0-9.737-4.367-9.737-9.734V92.559c0-5.369,4.368-9.736,9.737-9.736L371.34,82.822 M371.34,82.515H88.491
				c-5.544,0-10.045,4.501-10.045,10.044v282.85c0,5.543,4.501,10.043,10.045,10.043H371.34c5.543,0,10.043-4.5,10.043-10.043
				V92.559C381.383,87.015,376.883,82.515,371.34,82.515L371.34,82.515z"/>
		</g>
		<g opacity="0.25">
			<path fill="none" stroke="#096D42" stroke-width="0.75" d="M88.491,384.896c-5.034,0-9.122-4.084-9.122-9.121V92.929
				c0-5.034,4.087-9.121,9.122-9.121H371.34c5.031,0,9.121,4.086,9.121,9.121v282.848c0,5.035-4.088,9.121-9.121,9.121H88.491
				V384.896z"/>
			<path fill="#096D42" d="M371.34,84.055c4.893,0,8.873,3.982,8.873,8.875v282.849c0,4.896-3.98,8.875-8.873,8.875H88.491
				c-4.894,0-8.875-3.979-8.875-8.875V92.929c0-4.893,3.982-8.875,8.875-8.875L371.34,84.055 M371.34,83.809H88.491
				c-5.034,0-9.122,4.086-9.122,9.121v282.849c0,5.033,4.087,9.121,9.122,9.121H371.34c5.031,0,9.121-4.086,9.121-9.121V92.929
				C380.459,87.895,376.374,83.809,371.34,83.809L371.34,83.809z"/>
		</g>
		<g opacity="0.1875">
			<path fill="none" stroke="#096D42" stroke-width="0.8125" d="M88.491,384.346c-4.524,0-8.198-3.674-8.198-8.195V93.298
				c0-4.524,3.674-8.197,8.198-8.197H371.34c4.521,0,8.195,3.673,8.195,8.197v282.851c0,4.523-3.674,8.194-8.195,8.194
				L88.491,384.346L88.491,384.346z"/>
			<path fill="#096D42" d="M371.34,85.286c4.416,0,8.012,3.595,8.012,8.013v282.85c0,4.418-3.594,8.014-8.012,8.014H88.491
				c-4.418,0-8.013-3.594-8.013-8.014V93.298c0-4.418,3.595-8.013,8.013-8.013L371.34,85.286 M371.34,85.101H88.491
				c-4.524,0-8.198,3.673-8.198,8.197v282.851c0,4.523,3.674,8.194,8.198,8.194H371.34c4.521,0,8.195-3.673,8.195-8.194V93.298
				C379.538,88.775,375.862,85.101,371.34,85.101L371.34,85.101z"/>
		</g>
		<g opacity="0.125">
			<path fill="none" stroke="#096D42" stroke-width="0.875" d="M88.491,383.791c-4.014,0-7.274-3.264-7.274-7.273V93.668
				c0-4.013,3.261-7.273,7.274-7.273H371.34c4.01,0,7.273,3.261,7.273,7.273v282.85c0,4.012-3.264,7.274-7.273,7.274L88.491,383.791
				L88.491,383.791z"/>
			<path fill="#096D42" d="M371.34,86.519c3.941,0,7.148,3.208,7.148,7.15V376.52c0,3.94-3.207,7.149-7.148,7.149H88.491
				c-3.942,0-7.151-3.209-7.151-7.149V93.668c0-3.942,3.208-7.15,7.151-7.15L371.34,86.519 M371.34,86.396H88.491
				c-4.014,0-7.274,3.261-7.274,7.273V376.52c0,4.012,3.261,7.273,7.274,7.273H371.34c4.01,0,7.273-3.264,7.273-7.273V93.668
				C378.614,89.655,375.352,86.396,371.34,86.396L371.34,86.396z"/>
		</g>
		<g opacity="0.0625">
			<path fill="none" stroke="#096D42" stroke-width="0.9375" d="M88.491,383.236c-3.503,0-6.351-2.848-6.351-6.35V94.038
				c0-3.502,2.848-6.35,6.351-6.35H371.34c3.502,0,6.35,2.848,6.35,6.35v282.851c0,3.504-2.85,6.35-6.35,6.35H88.491V383.236z"/>
			<path fill="#096D42" d="M371.34,87.75c3.467,0,6.287,2.82,6.287,6.288v282.851c0,3.469-2.82,6.289-6.287,6.289H88.491
				c-3.468,0-6.289-2.82-6.289-6.289V94.038c0-3.468,2.821-6.288,6.289-6.288H371.34 M371.34,87.688H88.491
				c-3.503,0-6.351,2.848-6.351,6.35v282.851c0,3.504,2.848,6.35,6.351,6.35H371.34c3.502,0,6.35-2.848,6.35-6.35V94.038
				C377.69,90.536,374.842,87.688,371.34,87.688L371.34,87.688z"/>
		</g>
		<path fill="none" stroke="#096D42" stroke-opacity="0" d="M88.491,382.684c-2.993,0-5.427-2.437-5.427-5.427V94.407
			c0-2.991,2.435-5.426,5.427-5.426H371.34c2.99,0,5.426,2.435,5.426,5.426v282.851c0,2.99-2.436,5.428-5.426,5.428L88.491,382.684
			L88.491,382.684z"/>
	</g>
	<g>
		<g opacity="0">
			<path d="M347.5,119.787v230.121h-63.439v-82.354v-0.986h-0.984H176.756h-0.985v0.986v82.354h-63.44V119.787h63.44v82.354v0.985
				h0.985h106.321h0.984v-0.985v-82.354H347.5 M348.487,118.802h-65.41v83.339H176.756v-83.339h-65.411v232.093h65.411v-83.34
				h106.321v83.34h65.41V118.802L348.487,118.802z"/>
		</g>
		<g opacity="0.0455">
			<path fill="#010A06" d="M347.051,119.337v229.674h-62.545v-82.354v-0.985h-0.984H176.308h-0.985v0.985v82.354h-62.544V119.337
				h62.544v82.355v0.985h0.985h107.214h0.984v-0.985v-82.355H347.051 M348.038,118.353h-64.516v83.34H176.308v-83.34h-64.515
				v231.644h64.515v-83.338h107.214v83.34h64.516V118.353L348.038,118.353z"/>
		</g>
		<g opacity="0.0909">
			<path fill="#02140C" d="M346.604,118.889v229.227h-61.648v-82.355v-0.983h-0.984H175.86h-0.985v0.983v82.355h-61.65V118.889
				h61.65v82.354v0.985h0.985h108.11h0.985v-0.985v-82.354H346.604 M347.588,117.904H283.97v83.339H175.86v-83.339h-63.62V349.1
				h63.621v-83.34h108.11v83.34h63.619V117.904H347.588z"/>
		</g>
		<g opacity="0.1364">
			<path fill="#021E12" d="M346.157,118.44v228.779h-60.755v-82.354v-0.985h-0.985H175.413h-0.985v0.985v82.354h-60.754V118.44
				h60.754v82.354v0.985h0.985h109.003h0.985v-0.985V118.44H346.157 M347.141,117.455h-62.725v83.339H175.413v-83.339h-62.724
				v230.749h62.724v-83.339h109.003v83.339h62.725V117.455L347.141,117.455z"/>
		</g>
		<g opacity="0.1818">
			<path fill="#032818" d="M345.709,117.992v228.333H285.85V263.97v-0.985h-0.984H174.965h-0.985v0.985v82.355h-59.858V117.992
				h59.858v82.355v0.985h0.985h109.901h0.984v-0.985v-82.355H345.709 M346.694,117.006h-61.828v83.34H174.965v-83.34h-61.829
				v230.305h61.829v-83.342h109.901v83.342h61.828V117.006L346.694,117.006z"/>
		</g>
		<g opacity="0.2273">
			<path fill="#04321E" d="M345.26,117.543v227.884h-58.963v-82.354v-0.985h-0.984H174.517h-0.985v0.985v82.354h-58.963V117.543
				h58.963v82.354v0.985h0.985h110.796h0.984v-0.985v-82.354H345.26 M346.247,116.558h-60.934v83.339H174.517v-83.339h-60.933
				v229.855h60.933v-83.339h110.796v83.339h60.934V116.558L346.247,116.558z"/>
		</g>
		<g opacity="0.2727">
			<path fill="#053B24" d="M344.813,117.095v227.438h-58.064V262.18v-0.986h-0.983H174.069h-0.985v0.986v82.354h-58.067V117.095
				h58.067v82.354v0.985h0.985h111.693h0.984v-0.985v-82.354L344.813,117.095 M345.797,116.109h-60.033v83.339H174.069v-83.339
				h-60.038v229.409h60.038v-83.341h111.693v83.341h60.033L345.797,116.109L345.797,116.109z"/>
		</g>
		<g opacity="0.3182">
			<path fill="#06452A" d="M344.366,116.646v226.991h-57.171v-82.355v-0.985h-0.983h-112.59h-0.985v0.985v82.355h-57.171V116.646
				h57.171V199v0.985h0.985h112.586h0.984V199v-82.354H344.366 M345.35,115.661h-59.141v83.34H173.621v-83.34H114.48v228.961h59.141
				v-83.341h112.586v83.341h59.141L345.35,115.661L345.35,115.661z"/>
		</g>
		<g opacity="0.3636">
			<path fill="#074F30" d="M343.917,116.198V342.74h-56.275v-82.355V259.4h-0.984H173.174h-0.985v0.983v82.355h-56.276V116.198
				h56.276v82.354v0.985h0.985h113.483h0.984v-0.985v-82.354H343.917 M344.903,115.213h-58.246v83.339H173.174v-83.339h-58.247
				v228.512h58.247v-83.34h113.483v83.34h58.246V115.213L344.903,115.213z"/>
		</g>
		<g opacity="0.4091">
			<path fill="#075936" d="M343.469,115.749v226.094h-55.381v-82.354v-0.984h-0.985H172.726h-0.985v0.984v82.354H116.36V115.749
				h55.381v82.355v0.985h0.985h114.379h0.985v-0.985v-82.355H343.469 M344.456,114.764h-57.353v83.34H172.726v-83.34h-57.351
				v228.064h57.351v-83.339h114.379v83.339h57.353L344.456,114.764L344.456,114.764z"/>
		</g>
		<g opacity="0.4545">
			<path fill="#08633C" d="M343.022,115.3v225.647h-54.484v-82.354v-0.985h-0.986H172.278h-0.985v0.985v82.354h-54.485V115.3h54.485
				v82.354v0.985h0.985h115.275h0.984v-0.985V115.3H343.022 M344.006,114.315h-56.455v83.339H172.278v-83.339h-56.456v227.617
				h56.456v-83.34h115.275v83.34h56.455L344.006,114.315L344.006,114.315z"/>
		</g>
		<g opacity="0.5">
			<path fill="#096D42" d="M342.575,114.851v225.201h-53.59v-82.354v-0.985H288H171.83h-0.985v0.985v82.354h-53.589V114.851h53.589
				v82.354v0.985h0.985H288h0.984v-0.985v-82.354H342.575 M343.559,113.866H288v83.339H171.83v-83.339h-55.559v227.171h55.559
				v-83.342H288v83.342h55.561V113.866H343.559z"/>
		</g>
	</g>
	
		<radialGradient id="SVGID_3_" cx="403.5718" cy="-439.8447" r="466.0981" gradientTransform="matrix(1 0 0 -1 -168 21.832)" gradientUnits="userSpaceOnUse">
		<stop  offset="0.0245" style="stop-color:#52D5A1"/>
		<stop  offset="0.1701" style="stop-color:#3BCB92"/>
		<stop  offset="0.3291" style="stop-color:#29C385"/>
		<stop  offset="0.4417" style="stop-color:#22C081"/>
		<stop  offset="0.449" style="stop-color:#24C182"/>
		<stop  offset="0.5627" style="stop-color:#3DCC93"/>
		<stop  offset="0.6659" style="stop-color:#4DD39D"/>
		<stop  offset="0.7485" style="stop-color:#52D5A1"/>
		<stop  offset="1" style="stop-color:#80F5C6"/>
	</radialGradient>
	<polygon fill="url(#SVGID_3_)" points="288,118.797 288,202.136 171.83,202.136 171.83,118.797 116.271,118.797 116.271,341.037 
		171.83,341.037 171.83,257.695 288,257.695 288,341.037 343.559,341.037 343.559,118.797 	"/>
	<path fill="#A1FFDA" d="M371.34,391.544H88.491c-11.158,0-20.205-9.045-20.205-20.202v3.944c0,11.157,9.047,20.204,20.205,20.204
		H371.34c11.156,0,20.203-9.047,20.203-20.204v-3.944C391.543,382.499,382.499,391.544,371.34,391.544z"/>
	<path fill="#075734" d="M371.34,72.232H88.491c-11.158,0-20.205,9.046-20.205,20.202V88.49c0-11.157,9.047-20.203,20.205-20.203
		H371.34c11.156,0,20.203,9.046,20.203,20.203v3.944C391.543,81.278,382.499,72.232,371.34,72.232z"/>
	<g>
		<rect x="171.83" y="197.206" fill="#A1FFDA" width="116.17" height="4.931"/>
		<rect x="116.271" y="113.866" fill="#A1FFDA" width="55.559" height="4.931"/>
		<rect x="288" y="113.866" fill="#A1FFDA" width="55.561" height="4.931"/>
	</g>
</g>
</svg>
