<?xml version="1.0" encoding="utf-8"?>
<!-- Generator: Adobe Illustrator 14.0.0, SVG Export Plug-In . SVG Version: 6.00 Build 43363)  -->
<!DOCTYPE svg PUBLIC "-//W3C//DTD SVG 1.1//EN" "http://www.w3.org/Graphics/SVG/1.1/DTD/svg11.dtd">
<svg version="1.1" id="Layer_1" xmlns="http://www.w3.org/2000/svg" xmlns:xlink="http://www.w3.org/1999/xlink" x="0px" y="0px"
	 width="459.833px" height="459.832px" viewBox="0 0 459.833 459.832" enable-background="new 0 0 459.833 459.832"
	 xml:space="preserve">
<path fill="#098B55" d="M371.479,3.416H88.354c-46.911,0-84.938,38.028-84.938,84.938v283.125c0,46.908,38.027,84.938,84.938,84.938
	h283.123c46.91,0,84.938-38.031,84.938-84.938l0.002-283.125C456.417,41.443,418.387,3.416,371.479,3.416z M391.543,371.342
	c0,11.156-9.047,20.201-20.203,20.201H88.491c-11.158,0-20.205-9.045-20.205-20.201V88.492c0-11.158,9.047-20.203,20.205-20.203
	H371.34c11.156,0,20.203,9.045,20.203,20.203V371.342z"/>
<polygon fill="#098B55" points="288.001,118.796 288.001,202.135 171.832,202.135 171.832,118.796 116.272,118.796 116.272,341.036 
	171.832,341.036 171.832,257.694 288.001,257.694 288.001,341.036 343.56,341.036 343.56,118.796 "/>
</svg>
