<?xml version="1.0" encoding="utf-8"?>
<!-- Generator: Adobe Illustrator 14.0.0, SVG Export Plug-In . SVG Version: 6.00 Build 43363)  -->
<!DOCTYPE svg PUBLIC "-//W3C//DTD SVG 1.1//EN" "http://www.w3.org/Graphics/SVG/1.1/DTD/svg11.dtd">
<svg version="1.1" id="Layer_1" xmlns="http://www.w3.org/2000/svg" xmlns:xlink="http://www.w3.org/1999/xlink" x="0px" y="0px"
	 width="423.732px" height="82.756px" viewBox="0 0 423.732 82.756" enable-background="new 0 0 423.732 82.756"
	 xml:space="preserve">
<g>
	<path fill="#0C8A54" d="M51.704,11.467c-2.607-3.021-5.759-5.498-9.366-7.36c-3.668-1.894-7.798-2.854-12.276-2.854
		c-4.29,0-8.332,0.896-12.014,2.66c-3.645,1.749-6.846,4.14-9.516,7.104C5.876,13.969,3.77,17.404,2.268,21.23
		C0.763,25.066,0,29.134,0,33.318c0,4.006,0.716,7.977,2.128,11.801c1.415,3.834,3.45,7.288,6.047,10.268
		c2.612,2.998,5.785,5.436,9.43,7.242c3.685,1.828,7.82,2.756,12.289,2.756c4.294,0,8.337-0.896,12.015-2.661
		c3.646-1.747,6.833-4.124,9.476-7.063c2.627-2.924,4.721-6.346,6.219-10.17c1.506-3.836,2.27-7.904,2.27-12.088
		c0-3.949-0.717-7.879-2.131-11.68C56.33,17.925,54.299,14.475,51.704,11.467z M29.978,54.619c-2.729,0-5.233-0.572-7.441-1.701
		c-2.248-1.148-4.197-2.719-5.795-4.666c-1.624-1.979-2.899-4.287-3.79-6.861c-0.897-2.585-1.352-5.301-1.352-8.072
		c0-2.663,0.442-5.312,1.313-7.875c0.866-2.547,2.115-4.842,3.713-6.82c1.575-1.95,3.518-3.549,5.774-4.753
		c2.2-1.174,4.75-1.769,7.577-1.769c2.67,0,5.129,0.57,7.308,1.697c2.232,1.154,4.19,2.719,5.821,4.648
		c1.642,1.947,2.926,4.234,3.814,6.798c0.896,2.592,1.351,5.308,1.351,8.073c0,2.613-0.43,5.241-1.276,7.809
		c-0.84,2.547-2.076,4.852-3.673,6.855c-1.578,1.979-3.523,3.605-5.782,4.834C35.345,54.014,32.8,54.619,29.978,54.619z"/>
	<path fill="#0C8A54" d="M106.062,24.105c-2.004-2.277-4.404-4.109-7.137-5.445c-2.771-1.354-5.85-2.041-9.146-2.041
		c-3.689,0-7.109,0.924-10.17,2.746c-1.34,0.799-2.574,1.715-3.697,2.743v-4.737H65.396v65.385h11.35V60.074
		c1.051,1.006,2.209,1.92,3.471,2.734c3.07,1.986,6.652,2.993,10.648,2.993c3.193,0,6.164-0.675,8.828-2.007
		c2.627-1.312,4.918-3.109,6.811-5.338c1.879-2.212,3.35-4.846,4.375-7.828c1.014-2.953,1.529-6.136,1.529-9.46
		c0-3.177-0.564-6.28-1.674-9.226C109.62,28.999,108.048,26.361,106.062,24.105z M93.569,54.305c-1.477,0.773-3.1,1.15-4.961,1.15
		c-1.256,0-2.477-0.223-3.633-0.664c-1.211-0.459-2.365-1.098-3.436-1.902c-1.068-0.801-2.031-1.764-2.861-2.861
		c-0.766-1.012-1.414-2.107-1.934-3.262V34.957c0.232-0.975,0.686-1.893,1.381-2.801c0.787-1.024,1.732-1.92,2.807-2.66
		c1.111-0.766,2.314-1.393,3.572-1.861c1.191-0.443,2.348-0.668,3.436-0.668c1.805,0,3.496,0.37,5.025,1.1
		c1.568,0.748,2.947,1.773,4.1,3.045c1.166,1.289,2.107,2.827,2.795,4.569c0.684,1.733,1.029,3.579,1.029,5.488
		c0,1.829-0.301,3.635-0.893,5.364c-0.588,1.714-1.441,3.262-2.539,4.604C96.386,52.449,95.077,53.516,93.569,54.305z"/>
	<path fill="#0C8A54" d="M158.391,23.979c-2.066-2.215-4.598-4.014-7.529-5.344c-2.951-1.337-6.248-2.016-9.803-2.016
		c-3.547,0-6.854,0.662-9.824,1.965c-2.957,1.299-5.547,3.093-7.695,5.332c-2.146,2.237-3.832,4.871-5.01,7.828
		c-1.174,2.953-1.77,6.124-1.77,9.425c0,3.3,0.596,6.481,1.768,9.461c1.176,2.985,2.846,5.632,4.959,7.864
		c2.123,2.246,4.703,4.044,7.666,5.344c2.969,1.303,6.275,1.964,9.822,1.964c2.34,0,4.627-0.306,6.799-0.907
		c2.162-0.6,4.166-1.442,5.955-2.504c1.797-1.064,3.406-2.35,4.783-3.818c1.396-1.49,2.518-3.164,3.33-4.977l0.953-2.125
		l-10.316-2.852l-0.666,1.661c-0.352,0.88-0.857,1.651-1.541,2.358c-0.721,0.744-1.561,1.381-2.492,1.895
		c-0.977,0.537-2.045,0.971-3.174,1.289c-1.094,0.311-2.232,0.468-3.379,0.468c-1.615,0-3.162-0.312-4.604-0.927
		c-1.467-0.623-2.795-1.501-3.953-2.609c-1.15-1.104-2.102-2.447-2.828-4c-0.447-0.951-0.787-1.981-1.018-3.079h35.504l0.322-1.608
		c0.074-0.37,0.125-0.829,0.162-1.452c0.029-0.534,0.045-1.126,0.045-1.779c0-3.124-0.564-6.188-1.678-9.106
		C162.062,28.803,160.451,26.195,158.391,23.979z M141.059,26.132c1.68,0,3.283,0.303,4.764,0.898
		c1.488,0.601,2.812,1.438,3.934,2.486c1.125,1.055,2.076,2.364,2.828,3.892c0.439,0.893,0.777,1.842,1.01,2.838h-24.916
		c0.223-1,0.541-1.947,0.955-2.832c0.699-1.494,1.623-2.796,2.746-3.871c1.115-1.068,2.432-1.914,3.914-2.512
		C137.773,26.434,139.377,26.132,141.059,26.132z"/>
	<path fill="#0C8A54" d="M208.996,22.797c-1.184-1.936-2.781-3.467-4.752-4.552c-1.963-1.079-4.395-1.626-7.229-1.626
		c-4.172,0-8.086,1.015-11.631,3.015c-1.676,0.945-3.176,2.049-4.492,3.303v-5.565h-10.682v47.596h11.35V36.963
		c0.434-1.346,1.064-2.598,1.879-3.729c0.879-1.222,1.918-2.285,3.084-3.16c1.184-0.888,2.457-1.6,3.783-2.115
		c1.266-0.492,2.539-0.741,3.785-0.741c2.236,0,3.766,0.728,4.812,2.288c1.188,1.771,1.791,4.824,1.791,9.074v26.387h11.35V36.91
		c0-2.729-0.223-5.297-0.662-7.635C210.924,26.821,210.121,24.642,208.996,22.797z"/>
	<polygon fill="#0C8A54" points="261.998,27.311 233.344,27.311 233.344,1.67 221.826,1.67 221.826,64.967 233.344,64.967 
		233.344,37.991 261.998,37.991 261.998,64.967 273.514,64.967 273.514,1.67 261.998,1.67 	"/>
	<path fill="#0C8A54" d="M321.467,54.588c-0.002,0-0.004,0-0.004,0c-0.031-0.064-0.09-0.264-0.09-0.641V36.158
		c0-6.111-1.84-10.955-5.469-14.396c-3.6-3.412-8.502-5.143-14.572-5.143c-3.211,0-6.35,0.514-9.33,1.527
		c-2.934,0.998-5.928,2.508-8.898,4.488l-1.48,0.986l4.273,8.398l1.885-1.322c4.48-3.141,8.76-4.732,12.717-4.732
		c3.146,0,5.467,0.803,7.094,2.453c1.637,1.658,2.432,3.944,2.432,6.988v0.729c-1.068-0.301-2.209-0.561-3.41-0.776
		c-2.283-0.409-4.564-0.616-6.783-0.616c-2.84,0-5.51,0.35-7.938,1.037c-2.473,0.703-4.652,1.733-6.479,3.064
		c-1.887,1.376-3.365,3.068-4.393,5.029c-1.039,1.979-1.564,4.188-1.564,6.566c0,2.121,0.439,4.156,1.309,6.053
		c0.863,1.886,2.08,3.54,3.615,4.916c1.514,1.357,3.326,2.44,5.387,3.22c2.057,0.778,4.316,1.174,6.721,1.174
		c1.639,0,3.312-0.185,4.979-0.547c1.664-0.362,3.307-0.915,4.881-1.642c1.58-0.73,3.09-1.654,4.486-2.746
		c0.195-0.153,0.389-0.311,0.578-0.471c0.5,1.98,1.699,3.061,2.709,3.639c1.471,0.84,3.012,1.266,4.584,1.266
		c0.506,0,1.057-0.032,1.643-0.096c0.553-0.062,1.145-0.155,1.754-0.277l1.609-0.32v-9.919l-1.93-0.067
		C321.594,54.614,321.494,54.588,321.467,54.588z M293.01,45.127c1.938-1.299,4.625-1.958,7.988-1.958
		c1.646,0,3.393,0.171,5.184,0.509c1.326,0.25,2.613,0.581,3.842,0.986v5.023c0,0.544-0.391,1.295-1.086,2.1
		c-1.084,1.226-2.627,2.295-4.584,3.176s-3.986,1.327-6.027,1.327c-1.305,0-2.467-0.193-3.455-0.576
		c-0.979-0.378-1.803-0.874-2.447-1.476c-0.637-0.595-1.111-1.264-1.449-2.047c-0.338-0.781-0.504-1.572-0.504-2.42
		C290.471,47.764,291.277,46.289,293.01,45.127z"/>
	<path fill="#0C8A54" d="M361.584,50.025c-0.24,0.68-0.639,1.303-1.223,1.906c-0.652,0.676-1.426,1.281-2.297,1.799
		c-0.879,0.523-1.875,0.947-2.959,1.26c-1.062,0.309-2.154,0.465-3.244,0.465c-1.695,0-3.303-0.356-4.775-1.059
		c-1.506-0.717-2.836-1.722-3.959-2.988c-1.143-1.288-2.072-2.842-2.764-4.617c-0.686-1.761-1.033-3.68-1.033-5.705
		c0-2.082,0.334-4.003,0.994-5.711c0.662-1.719,1.564-3.229,2.68-4.49c1.086-1.227,2.404-2.198,3.92-2.885
		c1.514-0.686,3.148-1.033,4.855-1.033c2.115,0,3.977,0.475,5.691,1.45c1.686,0.961,2.965,2.274,3.906,4.017l0.785,1.45
		l10.996-3.453l-1.051-2.1c-1.779-3.556-4.432-6.427-7.887-8.537c-3.451-2.106-7.58-3.175-12.275-3.175
		c-3.605,0-6.928,0.662-9.871,1.969c-2.928,1.297-5.488,3.076-7.607,5.287c-2.125,2.215-3.783,4.84-4.93,7.801
		c-1.145,2.946-1.723,6.111-1.723,9.41s0.594,6.481,1.768,9.461c1.176,2.984,2.844,5.631,4.959,7.864
		c2.119,2.243,4.693,4.052,7.65,5.378c2.975,1.336,6.285,2.013,9.838,2.013c2.34,0,4.615-0.306,6.762-0.909
		c2.129-0.6,4.1-1.425,5.859-2.455c1.785-1.048,3.365-2.331,4.693-3.814c1.344-1.5,2.406-3.182,3.158-4.998l0.842-2.039
		l-11.125-3.363L361.584,50.025z"/>
	<polygon fill="#0C8A54" points="404.23,37.684 423.711,17.455 410.072,17.455 390.525,37.221 390.525,0 379.176,0 379.176,64.967 
		390.525,64.967 390.525,50.385 396.57,44.703 410.873,64.967 423.732,64.967 	"/>
</g>
</svg>
